<?xml version="1.0" encoding="UTF-8"?>
<svg id="Capa_2" data-name="Capa 2" xmlns="http://www.w3.org/2000/svg" viewBox="0 0 711.95 437.8">
  <defs>
    <style>
      .cls-1 {
        opacity: .6;
      }

      .cls-2 {
        fill: #ff9500;
      }

      .cls-3 {
        fill: #263238;
      }

      .cls-4 {
        opacity: .3;
      }

      .cls-5 {
        fill: #fff;
      }

      .cls-6 {
        fill: #e0e0e0;
      }

      .cls-7 {
        fill: #455a64;
      }

      .cls-8 {
        fill: #ffbf9d;
      }

      .cls-9 {
        fill: #d47c00;
      }

      .cls-10 {
        fill: #ebebeb;
      }

      .cls-11 {
        fill: #ff9a6c;
      }

      .cls-12 {
        fill: #f5f5f5;
      }

      .cls-13 {
        fill: #b34a00;
      }

      .cls-14 {
        fill: #ff6900;
      }

      .cls-15 {
        fill: #ff725e;
      }
    </style>
  </defs>
  <g id="Background_Complete" data-name="Background Complete">
    <g>
      <g>
        <path class="cls-6" d="M85.68,35.43c2.32-8.73,7.3-16.85,14.79-23.01,9.23-7.59,20.87-11.14,32.77-9.98,11.9,1.16,22.64,6.88,30.23,16.12,15.68,19.06,12.92,47.32-6.14,63h0c-9.23,7.59-20.87,11.14-32.77,9.98-11.9-1.16-22.63-6.88-30.23-16.12-9.51-11.57-12.24-26.52-8.65-39.99ZM169.24,57.77c3.34-12.57.8-26.52-8.08-37.31-7.09-8.62-17.1-13.96-28.21-15.04-11.1-1.08-21.96,2.22-30.58,9.31-8.62,7.09-13.96,17.1-15.04,28.21-1.08,11.1,2.22,21.96,9.31,30.58,7.09,8.62,17.1,13.96,28.2,15.04,11.1,1.08,21.96-2.22,30.58-9.31,6.99-5.75,11.64-13.32,13.8-21.47Z"/>
        <g>
          <path class="cls-11" d="M84.72,33.21c2.32-8.73,7.3-16.85,14.79-23.01C108.75,2.6,120.39-.94,132.29.22c11.9,1.16,22.64,6.88,30.23,16.12,15.68,19.06,12.92,47.32-6.14,63h0c-9.23,7.59-20.87,11.14-32.77,9.98-11.9-1.16-22.63-6.88-30.23-16.12-9.51-11.57-12.24-26.52-8.65-39.99ZM168.28,55.55c3.34-12.57.8-26.52-8.08-37.31-7.09-8.62-17.1-13.96-28.21-15.04-11.1-1.08-21.96,2.22-30.58,9.31-8.62,7.09-13.96,17.1-15.04,28.21-1.08,11.1,2.22,21.96,9.31,30.58,7.09,8.62,17.1,13.96,28.2,15.04,11.1,1.08,21.96-2.22,30.58-9.31,6.99-5.75,11.64-13.32,13.8-21.47Z"/>
          <path class="cls-13" d="M51.26,115.15l-.71-.78c-1.52-1.67-1.98-3.72-1.03-4.58l42.92-38.99c.21-.19.66-.05,1,.33l4.97,5.47c.34.37.44.83.23,1.02l-42.92,38.99c-.95.86-2.95.21-4.46-1.46Z"/>
        </g>
      </g>
      <path class="cls-6" d="M112.2,14.08s.38-.29,1.12-.72c.37-.22.82-.48,1.37-.74.55-.26,1.16-.59,1.88-.86,1.41-.61,3.15-1.18,5.12-1.67,1.98-.45,4.19-.8,6.54-.91,2.35-.09,4.58.06,6.59.34,2.01.32,3.79.74,5.25,1.22.74.21,1.38.48,1.95.7.57.21,1.05.43,1.43.62.77.37,1.19.59,1.17.62-.04.1-1.75-.74-4.66-1.59-1.45-.44-3.22-.81-5.21-1.1-1.99-.25-4.19-.39-6.5-.3-2.31.11-4.49.44-6.45.86-1.95.46-3.68.99-5.09,1.54-2.83,1.1-4.46,2.08-4.51,1.99Z"/>
      <path class="cls-6" d="M152.51,17.43c-.08.12-1.13-.4-2.36-1.18-1.23-.77-2.16-1.49-2.08-1.62.08-.12,1.13.4,2.36,1.18,1.23.77,2.16,1.49,2.08,1.62Z"/>
    </g>
    <g>
      <g>
        <path class="cls-10" d="M639.43,115.69l-41.12-20.02c-2.84-1.38-4.02-4.81-2.64-7.65l27.71-56.91c1.38-2.84,4.81-4.02,7.65-2.64l26.08,12.7,10.05,30.63-20.09,41.25c-1.38,2.84-4.81,4.02-7.65,2.64Z"/>
        <path class="cls-6" d="M657.11,41.17l-7.8,16.02c-1.29,2.64-.19,5.83,2.45,7.11l15.4,7.5-10.05-30.63Z"/>
      </g>
      <path class="cls-5" d="M646.18,54.85c-.1.21-4.44-1.7-9.69-4.26-5.25-2.56-9.43-4.8-9.33-5,.1-.21,4.44,1.7,9.69,4.26,5.25,2.56,9.43,4.8,9.33,5Z"/>
      <path class="cls-5" d="M654.06,69.89c-.1.21-7.19-3.04-15.83-7.25-8.65-4.21-15.57-7.79-15.47-8,.1-.21,7.19,3.04,15.84,7.25,8.64,4.21,15.57,7.79,15.47,8Z"/>
      <path class="cls-5" d="M653.2,78.82c-.1.21-7.82-3.35-17.24-7.94-9.43-4.59-16.98-8.48-16.88-8.68.1-.21,7.82,3.35,17.25,7.94,9.42,4.59,16.98,8.48,16.88,8.68Z"/>
      <path class="cls-5" d="M649.72,85.96c-.1.21-7.82-3.35-17.24-7.94-9.43-4.59-16.98-8.48-16.88-8.68.1-.21,7.82,3.35,17.25,7.94,9.42,4.59,16.98,8.48,16.88,8.68Z"/>
      <path class="cls-5" d="M646.25,93.09c-.1.21-7.82-3.35-17.24-7.94-9.43-4.59-16.98-8.48-16.88-8.68.1-.21,7.82,3.35,17.25,7.94,9.42,4.59,16.98,8.48,16.88,8.68Z"/>
      <path class="cls-5" d="M642.77,100.23c-.1.21-7.82-3.35-17.24-7.94-9.43-4.59-16.98-8.48-16.88-8.68.1-.21,7.82,3.35,17.25,7.94,9.42,4.59,16.98,8.48,16.88,8.68Z"/>
    </g>
    <g>
      <g>
        <path class="cls-13" d="M131.08,161c-2.46-.57-4-3.02-3.43-5.49l8.93-38.78c.45-1.97,2.53-3.18,4.64-2.69l3.65.84c1.49.34,3.03-.16,3.94-1.28l1.15-1.41c.91-1.12,2.45-1.62,3.94-1.28l17.31,3.99c1.35.31,2.44,1.27,2.88,2.51l.54,1.54c.44,1.25,1.53,2.2,2.88,2.51l22.06,5.08c2.11.49,3.45,2.48,2.99,4.45l-9.13,39.66c-.57,2.46-3.02,4-5.49,3.43l-56.86-13.09Z"/>
        <path class="cls-14" d="M175.23,120.97l-14.03-3.26-.71-2.63c-.46-1.71-1.9-3.05-3.72-3.47l-13.72-3.16c-2.44-.56-4.85.84-5.38,3.12l-.37,1.6-9.7,42.11c-.6,2.6,1.17,5.22,3.94,5.86l55.73,12.84c2.77.64,5.51-.95,6.11-3.55l9.16-39.78c.41-1.77-.7-3.54-2.47-3.95l-24.84-5.72Z"/>
      </g>
      <rect class="cls-5" x="149.09" y="135.54" width="34.04" height="14.32" transform="translate(36.26 -33.64) rotate(12.97)"/>
      <path class="cls-6" d="M177.77,144.52c-.03.12-5.15-.95-11.45-2.4-6.29-1.45-11.37-2.72-11.34-2.85.03-.12,5.15.95,11.45,2.4,6.29,1.45,11.37,2.72,11.34,2.85Z"/>
      <path class="cls-6" d="M177.09,147.49c-.03.12-5.15-.95-11.45-2.4-6.29-1.45-11.37-2.72-11.34-2.85.03-.12,5.15.95,11.45,2.4,6.29,1.45,11.37,2.72,11.34,2.85Z"/>
    </g>
  </g>
  <g id="Floor">
    <path class="cls-3" d="M680.19,437.27c0,.14-149.63.26-334.17.26s-334.2-.12-334.2-.26,149.6-.26,334.2-.26,334.17.12,334.17.26Z"/>
  </g>
  <g id="Ring_Binder" data-name="Ring Binder">
    <g>
      <g>
        <polygon class="cls-9" points="207.59 61.83 201.32 98.53 201.32 437.27 506.28 437.27 506.28 415.74 207.59 61.83"/>
        <g>
          <path class="cls-2" d="M207.59,61.83h293.46c6.73,0,12.2,5.46,12.2,12.2v333.8c0,6.73-5.46,12.2-12.2,12.2H207.59V61.83h0Z"/>
          <path class="cls-3" d="M501.04,420.52H207.09V61.33h293.96c7,0,12.7,5.7,12.7,12.7v333.8c0,7-5.7,12.7-12.7,12.7ZM208.09,419.52h292.96c6.45,0,11.7-5.25,11.7-11.7V74.03c0-6.45-5.25-11.7-11.7-11.7H208.09v357.19Z"/>
        </g>
        <polygon class="cls-6" points="480.24 72.08 497.17 100.31 497.17 409.4 233.33 406.77 218.88 391.83 480.24 72.08"/>
        <g>
          <rect class="cls-5" x="218.88" y="70.72" width="261.35" height="321.11"/>
          <path class="cls-3" d="M480.24,391.83c0-2.03-.09-130.13-.23-321.11l.23.23c-77.61,0-166.84.02-261.33.03h-.03l.26-.26c-.02,118.79-.03,229.27-.04,321.11l-.22-.22c157.57.13,259.54.22,261.35.22-1.81,0-103.79.09-261.35.22h-.22s0-.22,0-.22c-.01-91.84-.03-202.32-.04-321.11v-.26s.26,0,.26,0h.03c94.48.01,183.71.02,261.33.03h.23v.23c-.14,190.98-.23,319.08-.23,321.11Z"/>
        </g>
        <path class="cls-3" d="M250.96,178.86c0,3.61-2.65,6.53-5.93,6.53s-5.93-2.93-5.93-6.53,2.65-6.53,5.93-6.53,5.93,2.93,5.93,6.53Z"/>
        <g class="cls-4">
          <polygon points="207.59 224.95 218.88 224.95 218.85 215.22 207.59 215.22 207.59 224.95"/>
        </g>
        <g>
          <path class="cls-6" d="M213.01,146.5c-19.66,0-35.65,15.56-35.65,34.7s16.18,34.7,35.84,34.7h5.68l-.08-8.23-5.59.23c-15.65,0-28.58-11.98-28.58-26.7s12.73-26.7,28.39-26.7,28.39,11.98,28.39,26.7c0,2.21,1.63,4,3.63,4s3.63-1.79,3.63-4c0-19.13-15.99-34.7-35.65-34.7Z"/>
          <path class="cls-3" d="M213.01,146.5s.29,0,.84.02c.57.02,1.4.05,2.48.1,1.09.1,2.42.31,4,.55,1.55.39,3.36.75,5.3,1.52,3.88,1.41,8.46,3.86,12.74,7.96.5.54,1.02,1.09,1.54,1.64.26.28.53.55.78.85.24.31.48.62.72.93.47.63,1,1.24,1.44,1.92.43.69.87,1.39,1.32,2.1,1.65,2.91,3.07,6.19,3.87,9.83.33,1.83.7,3.71.72,5.66.03.96.22,1.97-.12,2.98-.3.99-.97,1.89-1.91,2.41-.93.52-2.12.59-3.13.15-1.01-.43-1.78-1.33-2.15-2.36-.19-.52-.27-1.08-.28-1.62-.03-.52-.06-1.05-.09-1.58,0-1.06-.25-2.11-.41-3.18-.79-4.25-2.89-8.35-5.85-11.85-1.56-1.68-3.23-3.33-5.22-4.63-.94-.72-2.02-1.24-3.05-1.85-.53-.28-1.09-.5-1.63-.76-.55-.25-1.1-.51-1.68-.68-.57-.2-1.15-.4-1.73-.59-.58-.17-1.19-.3-1.78-.45-1.18-.34-2.42-.43-3.65-.63-2.47-.19-5.01-.24-7.51.2-1.27.13-2.49.5-3.74.79-.62.17-1.22.41-1.83.61l-.91.32-.88.4c-2.4.99-4.61,2.43-6.67,4.07-2.08,1.63-3.83,3.68-5.34,5.88-1.53,2.2-2.65,4.71-3.37,7.32-.42,1.3-.58,2.66-.8,4.01-.06,1.37-.21,2.74-.07,4.12.15,2.75.74,5.51,1.86,8.07,2.58,6.21,7.61,11.13,13.42,13.96,2.9,1.44,6.03,2.33,9.17,2.71.78.14,1.57.17,2.35.2.78.04,1.56.09,2.35.03,1.57-.06,3.13-.13,4.68-.19h.26s0,.25,0,.25c.03,2.79.05,5.53.08,8.23v.25s-.25,0-.25,0c-2.11-.01-4.19.03-6.27-.03-1.04-.05-2.08-.11-3.11-.16-1.02-.15-2.04-.3-3.05-.45-4.02-.77-7.82-2.18-11.23-4.09-.83-.51-1.71-.96-2.49-1.52-.78-.57-1.56-1.13-2.34-1.7-.72-.63-1.44-1.26-2.15-1.88-.37-.3-.7-.64-1.01-.99l-.96-1.02c-2.49-2.77-4.59-5.8-6.02-9.04-.41-.78-.65-1.64-.98-2.44l-.46-1.22-.34-1.25c-.21-.83-.47-1.64-.62-2.48-.13-.83-.26-1.66-.39-2.48-.35-3.3-.37-6.54.2-9.59.18-1.54.63-2.99,1.01-4.43.16-.73.49-1.39.73-2.08.27-.67.48-1.37.8-2.01.66-1.26,1.18-2.56,1.96-3.68.36-.58.72-1.15,1.07-1.71.37-.55.8-1.05,1.19-1.57,3.18-4.1,6.89-7.04,10.41-9.05.44-.25.86-.52,1.29-.75.44-.21.88-.41,1.3-.61.86-.39,1.65-.82,2.48-1.07.81-.29,1.59-.56,2.33-.82.75-.22,1.48-.38,2.17-.55,1.36-.39,2.61-.51,3.67-.67.54-.07,1.03-.16,1.48-.19.45-.02.86-.04,1.23-.05.72-.03,1.28-.05,1.66-.06.37-.01.56,0,.56,0,0,0-.19.02-.56.05-.39.02-.94.06-1.66.1-.37.02-.78.04-1.23.07-.45.03-.94.14-1.47.21-1.06.17-2.3.31-3.65.71-.68.18-1.4.34-2.15.57-.74.27-1.51.54-2.31.84-.82.26-1.61.69-2.46,1.08-.42.2-.85.4-1.29.61-.43.22-.85.5-1.28.75-3.48,2.01-7.15,4.95-10.28,9.03-.38.51-.8,1.01-1.17,1.56-.35.56-.7,1.12-1.06,1.7-.77,1.11-1.28,2.41-1.93,3.66-.32.63-.52,1.32-.79,1.99-.23.68-.56,1.34-.71,2.06-.37,1.42-.81,2.86-.98,4.39-.55,3.01-.52,6.22-.17,9.48.13.81.26,1.63.39,2.45.15.82.42,1.62.62,2.44l.33,1.23.46,1.2c.33.79.57,1.64.98,2.41,1.42,3.19,3.5,6.18,5.97,8.92l.95,1.01c.31.34.64.68,1,.97.7.61,1.41,1.23,2.12,1.85.77.55,1.54,1.11,2.31,1.67.78.56,1.64.99,2.46,1.5,3.38,1.88,7.13,3.27,11.09,4.02,1,.15,2,.3,3.01.45,1.02.05,2.04.1,3.07.15,2.06.06,4.16.01,6.26.03l-.25.25c-.03-2.7-.06-5.44-.09-8.23l.26.25c-1.55.06-3.11.13-4.69.19-.78.06-1.58,0-2.38-.03-.8-.03-1.6-.06-2.4-.2-3.19-.38-6.37-1.29-9.33-2.76-5.92-2.87-11.04-7.88-13.68-14.22-1.14-2.62-1.74-5.44-1.9-8.24-.14-1.41,0-2.81.07-4.2.23-1.38.39-2.77.82-4.09.74-2.67,1.89-5.22,3.45-7.47,1.54-2.25,3.33-4.33,5.45-5.99,2.09-1.67,4.35-3.14,6.79-4.14l.9-.4.93-.32c.62-.21,1.23-.44,1.86-.62,1.27-.29,2.52-.67,3.81-.8,2.55-.44,5.13-.38,7.64-.19,1.25.2,2.51.29,3.71.64.6.15,1.22.28,1.81.46.59.2,1.17.4,1.75.61.59.18,1.15.44,1.7.7.55.26,1.12.49,1.66.77,1.04.62,2.14,1.15,3.09,1.89,2.02,1.32,3.72,3,5.3,4.71,3.01,3.57,5.14,7.75,5.93,12.07.16,1.08.4,2.15.41,3.23.03.54.06,1.07.08,1.61,0,.51.08,1.01.25,1.48.33.94,1.03,1.75,1.92,2.13.89.39,1.94.34,2.77-.13.84-.46,1.45-1.27,1.73-2.17.31-.9.13-1.89.11-2.85-.02-1.93-.38-3.79-.7-5.6-.78-3.6-2.18-6.86-3.8-9.75-.44-.7-.87-1.4-1.3-2.08-.44-.67-.96-1.28-1.42-1.91-.24-.31-.47-.62-.71-.92-.25-.3-.52-.56-.77-.84-.52-.55-1.02-1.1-1.52-1.64-4.22-4.08-8.76-6.54-12.61-7.97-1.92-.78-3.72-1.15-5.26-1.55-1.57-.25-2.9-.49-3.98-.6-1.08-.06-1.9-.11-2.47-.15-.56-.04-.84-.07-.84-.07Z"/>
        </g>
        <path class="cls-3" d="M250.96,273.2c0,3.61-2.65,6.53-5.93,6.53s-5.93-2.93-5.93-6.53,2.65-6.53,5.93-6.53,5.93,2.93,5.93,6.53Z"/>
        <rect class="cls-14" x="259.91" y="151.71" width="201.33" height="8.43"/>
        <rect class="cls-14" x="259.91" y="141.38" width="117.34" height="8.43"/>
        <rect class="cls-14" x="259.91" y="332.89" width="117.34" height="8.43"/>
        <g>
          <rect class="cls-6" x="260.78" y="123.24" width="201.58" height="12.29"/>
          <rect class="cls-6" x="258.61" y="235.91" width="201.58" height="12.29"/>
          <rect class="cls-6" x="260.78" y="175.37" width="80.39" height="12.29"/>
          <rect class="cls-6" x="359.68" y="175.37" width="100.51" height="12.29"/>
          <path class="cls-3" d="M377.25,146.4c0,.14-25.87.26-57.77.26s-57.78-.12-57.78-.26,25.86-.26,57.78-.26,57.77.12,57.77.26Z"/>
          <path class="cls-3" d="M461.23,156.07c0,.14-44.72.26-99.87.26s-99.88-.12-99.88-.26,44.71-.26,99.88-.26,99.87.12,99.87.26Z"/>
          <path class="cls-3" d="M461.23,165.23c0,.14-44.72.26-99.87.26s-99.88-.12-99.88-.26,44.71-.26,99.88-.26,99.87.12,99.87.26Z"/>
          <path class="cls-3" d="M340.47,195.16c0,.14-17.98.26-40.16.26s-40.17-.12-40.17-.26,17.98-.26,40.17-.26,40.16.12,40.16.26Z"/>
          <path class="cls-3" d="M340.47,204.6c0,.14-17.68.26-39.5.26s-39.5-.12-39.5-.26,17.68-.26,39.5-.26,39.5.12,39.5.26Z"/>
          <path class="cls-3" d="M340.15,214.2c0,.14-17.84.26-39.83.26s-39.84-.12-39.84-.26,17.83-.26,39.84-.26,39.83.12,39.83.26Z"/>
          <path class="cls-3" d="M340.15,223.51c0,.14-17.84.26-39.83.26s-39.84-.12-39.84-.26,17.83-.26,39.84-.26,39.83.12,39.83.26Z"/>
          <g>
            <path class="cls-3" d="M458.64,197.37c0,.14-18.63.26-41.6.26s-41.6-.12-41.6-.26,18.62-.26,41.6-.26,41.6.12,41.6.26Z"/>
            <path class="cls-3" d="M369.05,200.38s-.06-.67-.1-1.73c-.04-1.06-.09-2.54-.11-4.29l.21.22c-1.7.01-3.65.02-5.73.04-.05.06.47-.49.25-.26h0v.41s0,.41,0,.41c0,.27,0,.54,0,.8,0,.53,0,1.05,0,1.56,0,1-.02,1.95-.02,2.84l-.21-.22c1.67.02,3.08.07,4.08.11,1.01.04,1.61.08,1.64.11.03.03-.51.07-1.51.11-1,.04-2.46.09-4.22.11h-.21s0-.22,0-.22c0-.89-.02-1.84-.02-2.84,0-.51,0-1.03,0-1.56,0-.27,0-.53,0-.8v-.41s0-.21,0-.21v-.1s0-.05,0-.05v-.03h0v-.02h0c-.22.23.3-.32.25-.27,2.08.01,4.03.02,5.73.04h.22s0,.22,0,.22c-.02,1.86-.07,3.39-.11,4.44-.04,1.05-.07,1.62-.1,1.58Z"/>
          </g>
          <g>
            <path class="cls-3" d="M458.64,208.94c0,.14-18.63.26-41.6.26s-41.6-.12-41.6-.26,18.62-.26,41.6-.26,41.6.12,41.6.26Z"/>
            <path class="cls-3" d="M369.05,211.95s-.06-.67-.1-1.73c-.04-1.06-.09-2.54-.11-4.29l.21.22c-1.7.01-3.65.02-5.73.04-.05.06.47-.49.25-.26h0v.41s0,.41,0,.41c0,.27,0,.54,0,.8,0,.53,0,1.05,0,1.56,0,1-.02,1.95-.02,2.84l-.21-.22c1.67.02,3.08.07,4.08.11,1.01.04,1.61.08,1.64.11.03.03-.51.07-1.51.11-1,.04-2.46.09-4.22.11h-.21s0-.22,0-.22c0-.89-.02-1.84-.02-2.84,0-.51,0-1.03,0-1.56,0-.27,0-.53,0-.8v-.41s0-.21,0-.21v-.1s0-.05,0-.05v-.03h0v-.02h0c-.22.23.3-.32.25-.27,2.08.01,4.03.02,5.73.04h.22s0,.22,0,.22c-.02,1.86-.07,3.39-.11,4.44-.04,1.05-.07,1.62-.1,1.58Z"/>
          </g>
          <g>
            <path class="cls-3" d="M458.64,220.5c0,.14-18.63.26-41.6.26s-41.6-.12-41.6-.26,18.62-.26,41.6-.26,41.6.12,41.6.26Z"/>
            <path class="cls-3" d="M369.05,223.51s-.06-.67-.1-1.73c-.04-1.06-.09-2.54-.11-4.29l.21.22c-1.7.01-3.65.02-5.73.04-.05.06.47-.49.25-.26h0v.41s0,.41,0,.41c0,.27,0,.54,0,.8,0,.53,0,1.05,0,1.56,0,1-.02,1.95-.02,2.84l-.21-.22c1.67.02,3.08.07,4.08.11,1.01.04,1.61.08,1.64.11.03.03-.51.07-1.51.11-1,.04-2.46.09-4.22.11h-.21s0-.22,0-.22c0-.89-.02-1.84-.02-2.84,0-.51,0-1.03,0-1.56,0-.27,0-.53,0-.8v-.41s0-.21,0-.21v-.1s0-.05,0-.05v-.03h0v-.02h0c-.22.23.3-.32.25-.27,2.08.01,4.03.02,5.73.04h.22s0,.22,0,.22c-.02,1.86-.07,3.39-.11,4.44-.04,1.05-.07,1.62-.1,1.58Z"/>
          </g>
          <g>
            <path class="cls-3" d="M458.64,316.11s-.01-.34-.02-.99c0-.66,0-1.62-.02-2.88,0-2.54-.02-6.28-.04-11.15-.02-9.73-.05-23.95-.08-41.92l.15.16c-45.44.02-117.51.06-198.47.1h-.01l.25-.26c0,19.59,0,38.69,0,56.94l-.24-.25c56.75.05,106.34.09,141.75.12,17.72.03,31.89.06,41.64.07,4.87.01,8.64.03,11.2.03,1.27,0,2.24.01,2.9.02.65,0,1,.02,1,.02,0,0-.32.01-.97.02-.65,0-1.61,0-2.87.02-2.55,0-6.29.02-11.14.03-9.74.02-23.89.04-41.58.07-35.45.03-85.1.07-141.92.12h-.24s0-.25,0-.25c0-18.25,0-37.35,0-56.94v-.26s.25,0,.25,0h.01c80.96.04,153.04.08,198.47.1h.15s0,.16,0,.16c-.04,18.01-.06,32.26-.08,42.02-.02,4.85-.03,8.59-.04,11.12,0,1.25-.01,2.2-.02,2.85,0,.64-.02.95-.02.95Z"/>
            <path class="cls-3" d="M458.64,273.5c0,.14-44.31.26-98.96.26s-98.97-.12-98.97-.26,44.3-.26,98.97-.26,98.96.12,98.96.26Z"/>
            <path class="cls-3" d="M458.64,287.64c0,.14-44.31.26-98.96.26s-98.97-.12-98.97-.26,44.3-.26,98.97-.26,98.96.12,98.96.26Z"/>
            <path class="cls-3" d="M458.64,301.94c0,.14-44.31.26-98.96.26s-98.97-.12-98.97-.26,44.3-.26,98.97-.26,98.96.12,98.96.26Z"/>
            <path class="cls-3" d="M283.23,316.61c-.14,0-.25-12.88-.25-28.76s.11-28.77.25-28.77.25,12.88.25,28.77-.11,28.76-.25,28.76Z"/>
            <path class="cls-3" d="M350.35,314.88c-.14,0-.25-12.3-.25-27.47s.11-27.47.25-27.47.25,12.3.25,27.47-.11,27.47-.25,27.47Z"/>
            <path class="cls-3" d="M421.07,317.47c-.14,0-.25-12.69-.25-28.33s.11-28.33.25-28.33.25,12.68.25,28.33-.11,28.33-.25,28.33Z"/>
          </g>
          <path class="cls-3" d="M454.69,328.87c0,.14-43.34.26-96.79.26s-96.8-.12-96.8-.26,43.33-.26,96.8-.26,96.79.12,96.79.26Z"/>
          <path class="cls-3" d="M454.69,337.1c0,.14-43.34.26-96.79.26s-96.8-.12-96.8-.26,43.33-.26,96.8-.26,96.79.12,96.79.26Z"/>
          <path class="cls-3" d="M331.55,345.33c0,.14-15.77.26-35.22.26s-35.23-.12-35.23-.26,15.77-.26,35.23-.26,35.22.12,35.22.26Z"/>
        </g>
        <g class="cls-4">
          <polygon points="207.59 316.37 218.88 316.37 218.85 306.63 207.59 306.63 207.59 316.37"/>
        </g>
        <g>
          <path class="cls-6" d="M213.01,240.13c-19.66,0-35.65,15.56-35.65,34.7s16.18,34.7,35.84,34.7h5.68l-.08-8.23-5.59.23c-15.65,0-28.58-11.98-28.58-26.7s12.73-26.7,28.39-26.7,28.39,11.98,28.39,26.7c0,2.21,1.63,4,3.63,4s3.63-1.79,3.63-4c0-19.13-15.99-34.7-35.65-34.7Z"/>
          <path class="cls-3" d="M213.01,240.13s.29,0,.84.01c.57.02,1.4.05,2.48.1,1.09.1,2.42.31,4,.55,1.55.39,3.36.75,5.3,1.52,3.88,1.41,8.46,3.86,12.74,7.96.5.54,1.02,1.09,1.54,1.64.26.28.53.55.78.85.24.31.48.62.72.93.47.63,1,1.24,1.44,1.92.43.69.87,1.39,1.32,2.1,1.65,2.91,3.07,6.19,3.87,9.83.33,1.83.7,3.71.72,5.66.03.96.22,1.97-.12,2.98-.3.99-.97,1.89-1.91,2.41-.93.52-2.12.59-3.13.15-1.01-.43-1.78-1.33-2.15-2.36-.19-.52-.27-1.08-.28-1.62-.03-.52-.06-1.05-.09-1.58,0-1.06-.25-2.11-.41-3.18-.79-4.25-2.89-8.35-5.85-11.85-1.56-1.68-3.23-3.33-5.22-4.63-.94-.72-2.02-1.24-3.05-1.85-.53-.28-1.09-.5-1.63-.76-.55-.25-1.1-.51-1.68-.68-.57-.2-1.15-.4-1.73-.59-.58-.17-1.19-.3-1.78-.45-1.18-.34-2.42-.43-3.65-.63-2.47-.19-5.01-.24-7.51.2-1.27.13-2.49.5-3.74.79-.62.17-1.22.41-1.83.61l-.91.32-.88.4c-2.4.99-4.61,2.43-6.67,4.07-2.08,1.63-3.83,3.68-5.34,5.88-1.53,2.2-2.65,4.71-3.37,7.32-.42,1.3-.58,2.66-.8,4.01-.06,1.37-.21,2.74-.07,4.12.15,2.75.74,5.51,1.86,8.07,2.58,6.21,7.61,11.13,13.42,13.96,2.9,1.44,6.03,2.33,9.17,2.71.78.14,1.57.17,2.35.2.78.04,1.56.09,2.35.03,1.57-.06,3.13-.13,4.68-.19h.26s0,.25,0,.25c.03,2.79.05,5.53.08,8.23v.25s-.25,0-.25,0c-2.11-.01-4.19.03-6.27-.03-1.04-.05-2.08-.11-3.11-.16-1.02-.15-2.04-.3-3.05-.45-4.02-.77-7.82-2.18-11.23-4.09-.83-.51-1.71-.96-2.49-1.52-.78-.57-1.56-1.13-2.34-1.7-.72-.63-1.44-1.26-2.15-1.88-.37-.3-.7-.64-1.01-.99l-.96-1.02c-2.49-2.77-4.59-5.8-6.02-9.04-.41-.78-.65-1.64-.98-2.44l-.46-1.22-.34-1.25c-.21-.83-.47-1.64-.62-2.48-.13-.83-.26-1.66-.39-2.48-.35-3.3-.37-6.54.2-9.59.18-1.54.63-2.99,1.01-4.43.16-.73.49-1.39.73-2.08.27-.67.48-1.37.8-2.01.66-1.26,1.18-2.56,1.96-3.68.36-.58.72-1.15,1.07-1.71.37-.55.8-1.05,1.19-1.57,3.18-4.1,6.89-7.04,10.41-9.05.44-.25.86-.52,1.29-.75.44-.21.88-.41,1.3-.61.86-.39,1.65-.82,2.48-1.07.81-.29,1.59-.56,2.33-.82.75-.22,1.48-.38,2.17-.55,1.36-.39,2.61-.51,3.67-.67.54-.07,1.03-.16,1.48-.19.45-.02.86-.04,1.23-.05.72-.03,1.28-.05,1.66-.06.37-.01.56,0,.56,0,0,0-.19.02-.56.05-.39.02-.94.06-1.66.1-.37.02-.78.04-1.23.07-.45.03-.94.14-1.47.21-1.06.17-2.3.31-3.65.71-.68.18-1.4.34-2.15.57-.74.27-1.51.54-2.31.84-.82.26-1.61.69-2.46,1.08-.42.2-.85.4-1.29.61-.43.22-.85.5-1.28.75-3.48,2.01-7.15,4.95-10.28,9.03-.38.51-.8,1.01-1.17,1.56-.35.56-.7,1.12-1.06,1.7-.77,1.11-1.28,2.41-1.93,3.66-.32.63-.52,1.32-.79,1.99-.23.68-.56,1.34-.71,2.06-.37,1.42-.81,2.86-.98,4.39-.55,3.01-.52,6.22-.17,9.48.13.81.26,1.63.39,2.45.15.82.42,1.62.62,2.44l.33,1.23.46,1.2c.33.79.57,1.64.98,2.41,1.42,3.19,3.5,6.18,5.97,8.92l.95,1.01c.31.34.64.68,1,.97.7.61,1.41,1.23,2.12,1.85.77.55,1.54,1.11,2.31,1.67.78.56,1.64.99,2.46,1.5,3.38,1.88,7.13,3.27,11.09,4.02,1,.15,2,.3,3.01.45,1.02.05,2.04.1,3.07.15,2.06.06,4.16.01,6.26.03l-.25.25c-.03-2.7-.06-5.44-.09-8.23l.26.25c-1.55.06-3.11.13-4.69.19-.78.06-1.58,0-2.38-.03-.8-.03-1.6-.06-2.4-.2-3.19-.38-6.37-1.29-9.33-2.76-5.92-2.87-11.04-7.88-13.68-14.22-1.14-2.62-1.74-5.44-1.9-8.24-.14-1.41,0-2.81.07-4.2.23-1.38.39-2.77.82-4.09.74-2.67,1.89-5.22,3.45-7.47,1.54-2.25,3.33-4.33,5.45-5.99,2.09-1.67,4.35-3.14,6.79-4.14l.9-.4.93-.32c.62-.21,1.23-.44,1.86-.62,1.27-.29,2.52-.67,3.81-.8,2.55-.44,5.13-.38,7.64-.19,1.25.2,2.51.29,3.71.64.6.15,1.22.28,1.81.46.59.2,1.17.4,1.75.61.59.18,1.15.44,1.7.7.55.26,1.12.49,1.66.77,1.04.62,2.14,1.15,3.09,1.89,2.02,1.32,3.72,3,5.3,4.71,3.01,3.57,5.14,7.75,5.93,12.07.16,1.08.4,2.15.41,3.23.03.54.06,1.07.08,1.61,0,.51.08,1.01.25,1.48.33.94,1.03,1.75,1.92,2.13.89.39,1.94.34,2.77-.13.84-.46,1.45-1.27,1.73-2.17.31-.9.13-1.89.11-2.85-.02-1.93-.38-3.79-.7-5.6-.78-3.6-2.18-6.86-3.8-9.75-.44-.7-.87-1.4-1.3-2.08-.44-.67-.96-1.28-1.42-1.91-.24-.31-.47-.62-.71-.92-.25-.3-.52-.56-.77-.84-.52-.55-1.02-1.1-1.52-1.64-4.22-4.08-8.76-6.54-12.61-7.97-1.92-.78-3.72-1.15-5.26-1.55-1.57-.25-2.9-.49-3.98-.6-1.08-.06-1.9-.11-2.47-.15-.56-.04-.84-.07-.84-.07Z"/>
        </g>
        <polygon class="cls-9" points="207.59 420.02 201.32 437.27 506.28 437.27 506.28 420.02 207.59 420.02"/>
        <path class="cls-3" d="M226.38,399.59s.45-.01,1.33-.02c.89,0,2.2,0,3.92,0,3.45.01,8.54.03,15.1.05,13.14.07,32.18.16,55.84.28,47.33.29,113.11.68,186.95,1.13l-.26.26c0-8.16,0-16.84,0-25.62.03-79.76.06-151.95.08-204.22.03-26.12.06-47.27.08-61.89.02-7.3.04-12.97.05-16.83.01-1.92.02-3.38.03-4.38,0-.99.03-1.49.03-1.49,0,0,.02.5.03,1.49,0,.99.01,2.46.03,4.38.01,3.85.03,9.52.05,16.83.02,14.62.05,35.76.08,61.89.02,52.27.05,124.46.08,204.22,0,8.78,0,17.46,0,25.62v.26h-.26c-73.84-.51-139.62-.97-186.95-1.29-23.66-.19-42.7-.34-55.84-.44-6.56-.06-11.64-.11-15.1-.14-1.72-.02-3.03-.04-3.92-.05-.88-.01-1.33-.03-1.33-.03Z"/>
        <path class="cls-3" d="M222.06,395.34s.45-.02,1.33-.02c.89,0,2.19,0,3.91,0,3.45,0,8.52,0,15.06,0,13.11.03,32.11.07,55.72.13,47.24.16,112.9.37,186.67.61l-.26.26c0-8.6.02-17.75.03-27,.11-80.01.21-152.44.29-204.87.06-26.21.11-47.42.15-62.08.03-7.32.05-13.01.07-16.88.01-1.92.02-3.39.03-4.39,0-.99.03-1.5.03-1.5,0,0,.02.51.03,1.5,0,1,.01,2.47.02,4.39,0,3.87.02,9.56.03,16.88,0,14.67.01,35.88.02,62.08-.03,52.43-.08,124.86-.13,204.87,0,9.25-.02,18.4-.03,27v.26s-.26,0-.26,0c-73.77-.31-139.43-.58-186.67-.78-23.61-.12-42.61-.22-55.72-.29-6.54-.04-11.62-.08-15.06-.1-1.71-.02-3.02-.03-3.91-.04-.88-.01-1.33-.03-1.33-.03Z"/>
        <path class="cls-3" d="M230.27,403.66s.45-.01,1.33-.02c.89,0,2.2,0,3.91,0,3.45.01,8.53.03,15.08.05,13.12.07,32.14.16,55.76.28,47.25.28,112.89.68,186.5,1.12l-.26.26c.03-7.53.06-15.56.09-23.67.33-79.06.64-150.63.85-202.44.13-25.9.24-46.85.32-61.35.05-7.24.09-12.86.11-16.68.02-1.9.03-3.35.04-4.34.01-.98.03-1.48.03-1.48,0,0,.02.5.02,1.48,0,.99,0,2.44,0,4.34,0,3.82,0,9.44-.02,16.68-.04,14.49-.09,35.45-.15,61.35-.18,51.81-.43,123.38-.7,202.44-.03,8.11-.06,16.13-.09,23.67v.26s-.26,0-.26,0c-73.61-.51-139.25-.96-186.5-1.28-23.62-.19-42.63-.34-55.76-.44-6.55-.06-11.63-.11-15.08-.14-1.71-.02-3.02-.04-3.91-.05-.88-.01-1.33-.03-1.33-.03Z"/>
      </g>
      <polygon class="cls-7" points="485.04 107.91 509.53 107.91 518.26 117.71 510.66 129.39 485.02 129.39 485.04 107.91"/>
    </g>
  </g>
  <g id="Folders">
    <g>
      <g>
        <g>
          <path class="cls-7" d="M2.88,270.52c-1.84-.26-3.11-1.97-2.85-3.81l4.16-28.93c.21-1.47,1.66-2.48,3.23-2.26l2.72.39c1.11.16,2.21-.3,2.81-1.18l.75-1.1c.6-.88,1.7-1.34,2.81-1.18l12.91,1.86c1.01.14,1.87.78,2.26,1.66l.49,1.1c.4.89,1.26,1.52,2.26,1.66l16.46,2.37c1.57.23,2.67,1.6,2.46,3.07l-4.25,29.58c-.26,1.84-1.97,3.11-3.81,2.85l-42.41-6.1Z"/>
          <g class="cls-4">
            <path d="M2.88,270.52c-1.84-.26-3.11-1.97-2.85-3.81l4.16-28.93c.21-1.47,1.66-2.48,3.23-2.26l2.72.39c1.11.16,2.21-.3,2.81-1.18l.75-1.1c.6-.88,1.7-1.34,2.81-1.18l12.91,1.86c1.01.14,1.87.78,2.26,1.66l.49,1.1c.4.89,1.26,1.52,2.26,1.66l16.46,2.37c1.57.23,2.67,1.6,2.46,3.07l-4.25,29.58c-.26,1.84-1.97,3.11-3.81,2.85l-42.41-6.1Z"/>
          </g>
        </g>
        <path class="cls-7" d="M32.81,238.51l-10.47-1.53-.68-1.88c-.44-1.22-1.58-2.12-2.93-2.31l-10.23-1.47c-1.82-.26-3.5.91-3.74,2.61l-.17,1.19L.06,266.53c-.28,1.94,1.17,3.75,3.24,4.05l41.57,5.98c2.07.3,3.97-1.03,4.25-2.97l4.27-29.67c.19-1.32-.73-2.55-2.05-2.74l-18.53-2.66Z"/>
      </g>
      <rect class="cls-5" x="15.58" y="249.59" width="25" height="10.52" transform="translate(36.56 -1.4) rotate(8.18)"/>
      <path class="cls-3" d="M36.73,255.47c-.01.09-3.83-.38-8.52-1.06-4.7-.68-8.49-1.3-8.48-1.39.01-.09,3.83.38,8.52,1.06,4.69.67,8.49,1.3,8.48,1.39Z"/>
      <path class="cls-3" d="M36.41,257.68c-.01.09-3.83-.38-8.52-1.06-4.7-.68-8.49-1.3-8.48-1.39.01-.09,3.83.38,8.52,1.06,4.69.67,8.49,1.3,8.48,1.39Z"/>
    </g>
    <g>
      <g>
        <g>
          <path class="cls-15" d="M55.95,231.99c-1.21.17-2.33-.66-2.5-1.87l-2.74-19.01c-.14-.97.58-1.87,1.62-2.02l1.79-.26c.73-.11,1.34-.6,1.55-1.26l.27-.83c.22-.66.82-1.16,1.55-1.26l8.49-1.22c.66-.1,1.32.14,1.73.63l.51.6c.41.48,1.07.72,1.73.63l10.82-1.56c1.03-.15,1.98.51,2.12,1.48l2.81,19.45c.17,1.21-.66,2.33-1.87,2.5l-27.88,4.02Z"/>
          <g class="cls-4">
            <path class="cls-13" d="M55.95,231.99c-1.21.17-2.33-.66-2.5-1.87l-2.74-19.01c-.14-.97.58-1.87,1.62-2.02l1.79-.26c.73-.11,1.34-.6,1.55-1.26l.27-.83c.22-.66.82-1.16,1.55-1.26l8.49-1.22c.66-.1,1.32.14,1.73.63l.51.6c.41.48,1.07.72,1.73.63l10.82-1.56c1.03-.15,1.98.51,2.12,1.48l2.81,19.45c.17,1.21-.66,2.33-1.87,2.5l-27.88,4.02Z"/>
          </g>
        </g>
        <path class="cls-14" d="M68.89,206.25l-6.88.98-.78-1.06c-.51-.69-1.39-1.04-2.28-.91l-6.73.97c-1.2.17-2.04,1.22-1.88,2.34l.11.78,2.98,20.65c.18,1.27,1.44,2.15,2.8,1.95l27.33-3.94c1.36-.2,2.31-1.39,2.13-2.66l-2.81-19.5c-.13-.87-.93-1.47-1.8-1.35l-12.18,1.76Z"/>
      </g>
      <rect class="cls-5" x="60.72" y="213.98" width="16.43" height="6.91" transform="translate(-30.34 12.07) rotate(-8.21)"/>
      <path class="cls-3" d="M74.5,216.22c0,.06-2.49.47-5.57.92-3.09.45-5.59.76-5.6.7,0-.06,2.49-.47,5.57-.92,3.09-.45,5.59-.76,5.6-.7Z"/>
      <path class="cls-3" d="M74.72,217.68c0,.06-2.49.47-5.57.92-3.09.45-5.59.76-5.6.7,0-.06,2.49-.47,5.57-.92,3.09-.45,5.59-.76,5.6-.7Z"/>
    </g>
  </g>
  <g id="Speech_Bubble_2" data-name="Speech Bubble 2">
    <g>
      <g>
        <path class="cls-5" d="M600.66,127.07l6.51.84c1.9,3.22,4.69,5.98,8.25,7.85,10.22,5.39,22.88,1.47,28.27-8.75,5.39-10.22,1.47-22.88-8.75-28.27-10.22-5.39-22.88-1.47-28.27,8.75-2.25,4.27-2.87,8.96-2.1,13.37h0s-3.91,6.21-3.91,6.21Z"/>
        <path class="cls-3" d="M600.66,127.07s.1-.14.27-.41c.18-.28.43-.67.76-1.19.67-1.05,1.65-2.59,2.93-4.59h-.11s0,0,0,0c.01.03.05.05.09.03.03-.01.04-.04.04-.07-.46-2.69-.54-6.33.82-10.28.34-.98.75-1.98,1.27-2.96.57-.96,1.12-1.97,1.87-2.9,1.43-1.89,3.28-3.65,5.52-5.05,2.23-1.4,4.85-2.43,7.69-2.9,2.83-.47,5.87-.36,8.83.45,5.93,1.55,11.44,6.17,13.87,12.48,1.22,3.2,1.72,6.65,1.3,9.92-.38,3.28-1.54,6.37-3.23,9-1.69,2.64-3.97,4.75-6.44,6.29-2.48,1.54-5.19,2.49-7.83,2.89-2.65.41-5.23.28-7.57-.23-.29-.07-.58-.14-.87-.2-.29-.06-.57-.13-.84-.24-.55-.19-1.09-.38-1.62-.56-1.01-.48-2.02-.89-2.91-1.44-3.6-2.14-5.89-4.95-7.26-7.24,0-.02-.03-.03-.05-.03-2.1-.25-3.72-.45-4.83-.58-.55-.06-.96-.11-1.26-.15-.28-.03-.44-.05-.44-.05,0,0,.13.02.41.06.29.04.7.1,1.23.17,1.11.15,2.74.38,4.86.66l-.05-.03c1.35,2.32,3.64,5.17,7.27,7.34.89.56,1.91.98,2.93,1.47.54.19,1.08.38,1.63.57.27.11.56.18.85.24.29.07.58.14.88.21,2.36.52,4.98.66,7.66.26,2.68-.4,5.41-1.35,7.93-2.91,2.51-1.55,4.82-3.69,6.54-6.36,1.72-2.66,2.9-5.8,3.29-9.12.43-3.32-.07-6.82-1.31-10.06-.13-.41-.32-.79-.5-1.17l-.55-1.15-.65-1.08c-.21-.36-.43-.72-.69-1.05-.25-.34-.5-.67-.74-1.01-.24-.34-.55-.63-.81-.94-.28-.3-.54-.62-.84-.91-.31-.28-.61-.55-.91-.83-2.46-2.17-5.36-3.71-8.37-4.51-3-.81-6.09-.92-8.95-.44-2.87.47-5.52,1.53-7.78,2.95-2.26,1.42-4.13,3.21-5.57,5.13-.75.94-1.31,1.97-1.88,2.94-.52,1-.94,2.01-1.27,3-1.35,3.99-1.24,7.66-.76,10.36l.12-.04h0s-.05-.06-.09-.04c-.01,0-.02.01-.03.03-1.26,2.04-2.23,3.6-2.89,4.67-.32.52-.56.91-.73,1.19-.16.26-.24.4-.24.4Z"/>
      </g>
      <g>
        <path class="cls-3" d="M619.43,113.43h2.86s0-2.4,2.49-2.44c1.29-.02,1.96.83,2.24,1.47.32.75.22,1.61-.2,2.31-.48.8-1.55,1.52-3.47,1.19v6.44h2.82v-3.77s3.96-1.02,3.96-5.39-3.74-5.15-5.35-5.15c-1.23,0-5.4.3-5.35,5.33Z"/>
        <rect class="cls-3" x="623.34" y="123.73" width="2.87" height="2.68"/>
      </g>
    </g>
  </g>
  <g id="Speech_Bubble_1" data-name="Speech Bubble 1">
    <g>
      <g>
        <path class="cls-5" d="M88.8,181.09l-7.33-.08c-2.95,3-6.75,5.25-11.14,6.33-12.62,3.1-25.37-4.62-28.47-17.24-3.1-12.62,4.62-25.37,17.24-28.47,12.62-3.1,25.37,4.62,28.47,17.24,1.3,5.27.7,10.56-1.35,15.16h0s2.57,7.06,2.57,7.06Z"/>
        <path class="cls-3" d="M88.8,181.09s-.07-.17-.19-.47c-.13-.33-.3-.78-.52-1.36-.46-1.21-1.11-2.95-1.96-5.2l.19.03h0c-.04.06-.11.07-.16.03-.04-.03-.05-.09-.03-.13,1.19-2.75,2.27-6.65,1.89-11.31-.17-2.32-.77-4.79-1.81-7.24-1.04-2.46-2.57-4.89-4.63-7.04-2.06-2.15-4.65-4-7.63-5.28-2.98-1.28-6.35-1.99-9.82-1.9-6.92.14-14.27,3.72-18.55,10.09-.26.4-.54.79-.79,1.19l-.68,1.25-.34.62-.28.65-.55,1.3c-.61,1.77-1.12,3.58-1.3,5.41-.43,3.65.01,7.31,1.17,10.6,1.18,3.28,3.07,6.18,5.36,8.5,2.29,2.32,4.97,4.06,7.72,5.2,5.55,2.29,11.26,2.15,15.68.78,4.48-1.35,7.72-3.77,9.82-5.88.02-.02.05-.03.08-.03,2.35.05,4.16.1,5.42.13.6.02,1.07.03,1.42.04.32.01.5.02.5.02,0,0-.14,0-.45.01-.34,0-.8,0-1.39,0-1.27,0-3.11,0-5.49,0l.08-.03c-2.09,2.16-5.35,4.65-9.88,6.05-4.47,1.42-10.29,1.6-15.95-.7-2.81-1.15-5.55-2.91-7.89-5.27-2.34-2.35-4.28-5.31-5.49-8.66-1.19-3.36-1.66-7.09-1.22-10.83.18-1.87.69-3.72,1.32-5.53l.56-1.33.28-.67.35-.64.7-1.28c.26-.41.54-.81.81-1.22,4.38-6.51,11.9-10.17,18.97-10.29,3.55-.08,6.99.65,10.02,1.96,3.04,1.31,5.67,3.21,7.76,5.41,2.09,2.2,3.64,4.69,4.68,7.19,1.04,2.5,1.64,5.02,1.79,7.37.35,4.73-.78,8.67-2.03,11.42l-.19-.12h0c.04-.06.11-.07.15-.03.02.01.03.03.03.05.81,2.31,1.43,4.09,1.86,5.32.2.57.35,1.02.46,1.35.1.3.15.45.14.44Z"/>
      </g>
      <g>
        <path class="cls-3" d="M63.51,169.63c-2.45,0-4.85-1.17-6.33-3.34-2.38-3.48-1.48-8.25,2.01-10.63,3.48-2.38,8.25-1.48,10.63,2,2.38,3.48,1.48,8.25-2,10.63-1.32.9-2.82,1.33-4.3,1.33ZM63.49,156.34c-1.1,0-2.21.32-3.18.98-2.57,1.76-3.24,5.28-1.48,7.85.85,1.25,2.14,2.09,3.62,2.37,1.48.28,2.99-.04,4.23-.89,2.57-1.76,3.24-5.28,1.48-7.85-1.09-1.6-2.87-2.46-4.68-2.46Z"/>
        <path class="cls-3" d="M71.64,174.92c-.32,0-.63-.15-.83-.44l-4.4-6.44c-.31-.46-.19-1.08.26-1.39.46-.31,1.08-.19,1.39.26l4.4,6.44c.31.46.19,1.08-.26,1.39-.17.12-.37.17-.56.17Z"/>
      </g>
    </g>
  </g>
  <g id="Character_2" data-name="Character 2">
    <g>
      <g>
        <g>
          <path class="cls-7" d="M564.24,400.49l-5.66,19.59s18.02,12.33,17.32,16.05l-38.39-9.6,7.56-30.89,19.16,4.85Z"/>
          <path class="cls-6" d="M547.13,415.45c-.79.02-1.52.72-1.53,1.52-.02.79.7,1.53,1.49,1.53.79,0,1.69-.83,1.61-1.62-.07-.79-.96-1.61-1.73-1.42"/>
          <g class="cls-1">
            <path class="cls-5" d="M537.53,426.54l.88-3.08,36.47,10.36s1.52,1.17,1.03,2.33l-38.39-9.6Z"/>
          </g>
          <path class="cls-3" d="M559.26,420.05c-.05.19-1.01.04-2.08.41-1.08.34-1.76,1.04-1.92.92-.16-.08.4-1.13,1.7-1.56,1.3-.44,2.38.07,2.3.23Z"/>
          <path class="cls-3" d="M562.87,422.72c0,.19-.89.31-1.73.94-.85.61-1.23,1.43-1.41,1.37-.18-.01-.04-1.14,1.01-1.91,1.05-.78,2.17-.58,2.13-.4Z"/>
          <path class="cls-3" d="M563.95,428.11c-.18,0-.21-1,.53-1.91.73-.91,1.72-1.1,1.76-.92.07.18-.64.59-1.23,1.34-.61.74-.86,1.52-1.05,1.49Z"/>
          <path class="cls-3" d="M560.05,415.44c-.12.15-.92-.32-1.99-.52-1.07-.22-1.99-.07-2.04-.25-.07-.16.9-.66,2.17-.41,1.27.24,2,1.05,1.87,1.18Z"/>
        </g>
        <g>
          <g>
            <path class="cls-7" d="M550.79,405.11l-.89,20.37s20.41,7.75,20.61,11.53l-39.57-.31.09-31.8,19.76.21Z"/>
            <path class="cls-6" d="M537.67,423.67c-.77.2-1.3,1.06-1.13,1.84.17.78,1.04,1.33,1.81,1.14.77-.19,1.45-1.2,1.19-1.95-.26-.75-1.31-1.34-2.01-.97"/>
            <g class="cls-1">
              <path class="cls-5" d="M530.94,436.7l.13-3.21,37.89,1.49s1.76.78,1.55,2.02l-39.57-.31Z"/>
            </g>
            <path class="cls-3" d="M550.54,425.29c0,.19-.97.27-1.93.89-.97.59-1.47,1.42-1.65,1.34-.18-.04.12-1.19,1.29-1.91,1.16-.73,2.33-.49,2.29-.32Z"/>
            <path class="cls-3" d="M554.68,427.03c.04.19-.8.51-1.46,1.32-.69.79-.86,1.67-1.05,1.66-.18.03-.31-1.1.54-2.1.83-1,1.97-1.07,1.97-.89Z"/>
            <path class="cls-3" d="M556.99,432.02c-.18.04-.44-.93.07-1.98.5-1.06,1.41-1.47,1.49-1.31.11.16-.48.72-.88,1.59-.42.86-.48,1.68-.67,1.69Z"/>
            <path class="cls-3" d="M550.23,420.62c-.08.18-.97-.1-2.06-.03-1.09.04-1.95.4-2.05.24-.11-.14.72-.85,2.01-.91,1.29-.07,2.19.55,2.09.7Z"/>
          </g>
          <path class="cls-3" d="M550.73,420.39c.1,0,.11,1.89.05,4.91l-.16-.24c2.31.88,5.38,2.06,8.65,3.6,3.57,1.67,6.72,3.42,8.77,5.05,1.02.8,1.78,1.57,2.17,2.21.41.63.36,1.12.29,1.1-.03,0-.06-.4-.5-.95-.43-.56-1.2-1.24-2.24-1.98-2.07-1.5-5.21-3.16-8.77-4.82-3.24-1.53-6.28-2.77-8.55-3.74l-.17-.07v-.17c.19-3.01.35-4.89.45-4.89Z"/>
        </g>
        <g>
          <path class="cls-3" d="M528.8,268.83v14.63l3.93,57s-2.45,27.65-3.95,43.26c-1.3,13.56.83,37.16.83,37.16h22.87l8.18-78.73,5.08-49.1,8.84-22.35-45.78-1.88Z"/>
          <polygon class="cls-3" points="590.23 271.44 584.66 350.91 561.52 410.45 560.45 414.04 546.79 410.73 556.95 269.83 590.23 271.44"/>
          <path class="cls-7" d="M568.5,282.47s.01.12,0,.36c0,.26-.01.61-.02,1.05-.03.95-.08,2.31-.14,4.06-.11,3.52-.39,8.61-.79,14.9-.84,12.58-2.4,29.93-4.83,49.04-2.4,19.11-5.04,36.36-6.98,48.83-.98,6.22-1.78,11.26-2.33,14.77-.28,1.72-.5,3.07-.66,4.01-.08.44-.14.79-.18,1.04-.04.23-.07.35-.08.35,0,0,0-.12.03-.36.03-.26.08-.61.13-1.05.13-.95.32-2.3.56-4.02.52-3.52,1.26-8.56,2.17-14.79,1.84-12.49,4.43-29.74,6.83-48.84,2.43-19.09,4.05-36.44,4.98-49,.45-6.28.78-11.37.96-14.89.1-1.74.18-3.1.24-4.05.03-.44.06-.79.07-1.05.02-.24.03-.36.04-.36Z"/>
        </g>
      </g>
      <g>
        <g>
          <path class="cls-8" d="M552.53,125.59l-.03,38.33c0,6.52,7.82,18.2,18.12,17.74h.84c8.91-1.06,3.84-11.66,3.84-17.74,0-2.89,0-5.29.02-5.59,0,0,9.76-.91,10.47-10.57.34-4.67.27-14.34.1-23.08-.18-9.39-7.56-17.07-16.93-17.65l-.93-.06c-10.09-.03-15.75,8.52-15.5,18.61Z"/>
          <path class="cls-11" d="M575.32,158.34s-6.11-.02-12.35-4.49c0,0,2.64,7.25,12.33,6.97l.02-2.48Z"/>
          <path class="cls-3" d="M569.45,128.83c-.19.2-1.31-.69-2.93-.71-1.61-.05-2.81.78-2.99.58-.08-.09.11-.45.63-.83.51-.37,1.39-.73,2.4-.71,1.01.02,1.85.42,2.33.82.49.4.65.77.56.85Z"/>
          <path class="cls-3" d="M569.67,133.33c-.02.69-.62,1.25-1.34,1.24-.72,0-1.29-.57-1.27-1.26.02-.69.62-1.25,1.34-1.24.72,0,1.29.57,1.27,1.26Z"/>
          <path class="cls-3" d="M573.63,140.03c0-.08.93-.19,2.44-.29.38-.02.75-.07.82-.32.11-.27-.03-.69-.18-1.14-.3-.94-.61-1.92-.94-2.96-1.3-4.21-2.22-7.66-2.05-7.71.17-.05,1.37,3.32,2.67,7.52.31,1.04.61,2.03.9,2.97.12.44.33.94.11,1.5-.12.28-.41.47-.66.52-.25.06-.46.05-.65.05-1.51-.01-2.44-.06-2.44-.15Z"/>
          <path class="cls-3" d="M568.69,123.58c-.15.36-1.45.11-3,.2-1.55.06-2.82.45-3,.11-.08-.16.16-.5.68-.82.52-.33,1.33-.62,2.26-.66.93-.05,1.76.16,2.31.43.55.27.82.58.75.75Z"/>
          <path class="cls-3" d="M584.07,124.91c-.17.29-1.43-.02-2.96-.05-1.53-.06-2.8.18-2.96-.12-.07-.14.18-.41.71-.65.53-.24,1.34-.42,2.26-.4.92.03,1.73.26,2.25.53.53.27.78.55.7.69Z"/>
          <path class="cls-8" d="M552.88,132.8c-.16-.08-6.52-2.37-6.71,4.25-.19,6.62,6.49,5.45,6.51,5.26.02-.19.21-9.51.21-9.51Z"/>
          <path class="cls-11" d="M550.72,139.74s-.12.08-.32.16c-.19.08-.52.13-.86,0-.69-.28-1.25-1.4-1.25-2.6,0-.6.14-1.17.37-1.64.22-.48.54-.81.89-.86.35-.07.6.15.67.34.08.19.04.32.07.33.02.02.15-.11.1-.38-.02-.13-.1-.29-.25-.42-.16-.13-.39-.21-.63-.19-.51.02-.98.48-1.23.99-.28.52-.45,1.16-.45,1.83,0,1.34.65,2.6,1.6,2.91.46.13.85,0,1.06-.14.21-.16.25-.3.23-.32Z"/>
          <path class="cls-3" d="M543.95,122.19c1.35-2.35,1.64-5.14,2.36-7.75.72-2.61,2.14-5.33,4.69-6.27l.06.02c2.28-.95,5.11-.99,7.01.58.43-3.44,3.41-6.2,6.76-7.12,3.35-.92,8.74-.46,11.97.8,2.5.97,4.93,3,7.89,5.98,1.25,1.26,2.4,2.61,3.42,4.05l3.02,8.98-2.45,4.76c-.15.32-.3.65-.48.97v-.02s-2.14,9.99-2.14,9.99c-.17-2.71-.09-12.17-.26-14.88-4.19-.13-8.01-1.78-10.85-4.86-1.5-1.63-2.69-3.67-4.69-4.63-2.57-1.24-5.61-.28-8.3.69l.11-.1c-1.4.66-2.66,1.6-3.71,2.74.67,5.34.17,10.82-1.45,15.96-.24.77-.92,2.37-1.67,2.67-1.48.59-1.9-.92-2.8-1.71-.66-.58-1.64-.65-2.71-.63-.65-1.64-1.32-4.42-1.9-6.85-.89.28-1.85.37-2.78.22.28-.69.55-1.37.83-2.06-.37.24-.75.48-1.18.55-.43.07-.93-.09-1.13-.48-.26-.5.08-1.09.36-1.58Z"/>
          <path class="cls-7" d="M561.12,109.84s-.4.26-.96.9c-.55.63-1.17,1.73-1.44,3.22-.14.74-.23,1.57-.22,2.46,0,.89.09,1.84.17,2.84.08,1,.16,2.06.11,3.16-.03.55-.09,1.11-.2,1.67-.12.55-.25,1.15-.66,1.63-.33.39-.88.57-1.36.47-.48-.08-.91-.33-1.23-.68-.63-.72-.79-1.63-.96-2.44l.2.02c-.32.73-.65,1.45-1.15,2.04-.49.58-1.17.97-1.87,1.04-.35.04-.7-.02-1-.16-.31-.14-.53-.39-.68-.66-.15-.27-.23-.57-.21-.85.01-.29.12-.56.3-.75l.1.09c-.73.86-1.51,1.32-2.06,1.58-.27.13-.49.21-.64.26-.15.05-.23.07-.23.06,0,0,.07-.04.22-.1.14-.06.36-.15.62-.29.52-.28,1.28-.75,1.98-1.6l.1.09c-.32.35-.33.95-.05,1.43.14.24.35.46.62.58.27.13.59.17.9.14.64-.07,1.27-.44,1.73-.99.47-.55.79-1.26,1.11-1.99l.14-.31.07.33c.16.81.34,1.69.91,2.33.28.31.68.54,1.1.61.42.08.87-.07,1.15-.4.36-.41.5-.98.61-1.52.11-.55.17-1.1.2-1.64.05-1.08-.02-2.14-.1-3.14-.07-1-.15-1.96-.15-2.86,0-.9.09-1.74.25-2.49.3-1.51.95-2.62,1.53-3.25.59-.63,1.02-.84,1.02-.84Z"/>
          <path class="cls-7" d="M591.08,118.89s-.02.03-.08.07c-.06.05-.14.11-.24.18-.1.08-.24.17-.41.27-.17.1-.35.22-.58.32-.89.44-2.32.88-4.12.79-1.78-.08-3.92-.69-5.85-2.08-1.94-1.36-3.66-3.39-5.07-5.71-.72-1.16-1.3-2.35-1.94-3.45-.64-1.1-1.34-2.11-2.19-2.91-.84-.8-1.81-1.39-2.8-1.66-.5-.14-.99-.17-1.47-.15-.48.03-.93.13-1.34.27-.83.29-1.49.76-2,1.23-.51.48-.84.99-1.07,1.43-.43.89-.45,1.46-.48,1.45,0,0,0-.03,0-.1.01-.08.03-.18.04-.3.04-.26.15-.63.35-1.09.22-.45.55-.97,1.06-1.48.51-.5,1.18-.99,2.03-1.29.42-.15.89-.26,1.38-.3.49-.02,1.01,0,1.53.14,1.03.27,2.03.87,2.9,1.69.87.81,1.59,1.85,2.24,2.95.65,1.11,1.24,2.3,1.95,3.44,1.4,2.3,3.09,4.31,5,5.66,1.89,1.39,3.98,1.99,5.74,2.09,1.77.1,3.18-.3,4.08-.71.9-.41,1.32-.78,1.34-.75Z"/>
          <path class="cls-3" d="M584.19,129.27c-.19.2-1.31-.69-2.93-.71-1.61-.05-2.81.78-2.99.58-.08-.09.11-.45.63-.83.51-.37,1.39-.73,2.4-.71,1.01.02,1.85.42,2.33.82.49.4.65.77.56.85Z"/>
          <path class="cls-3" d="M582.73,133.33c-.02.69-.62,1.25-1.34,1.24-.72,0-1.29-.57-1.27-1.26.02-.69.62-1.25,1.34-1.24.72,0,1.29.57,1.27,1.26Z"/>
          <path class="cls-3" d="M587.29,111.38c.82,1.09,2.08,2.08,3.44,1.93.4-.04,1.44-.42,1.44-.42.47.29.36,1.9.03,2.35-.33.45-1.01,1.05-1.01,1.05,1.59.85,3.03.44,4.72-.18-.3,2.88-2.26,5.52-4.93,6.65-.85.36-1.89.55-2.66.05-.68-.44-.96-1.29-1.17-2.08-.76-2.89-1.15-5.88-1.18-8.87l1.33-.47Z"/>
        </g>
        <path class="cls-3" d="M573.64,144.18c.03.08-.29.29-.89.38-.59.09-1.48.01-2.3-.47-.82-.48-1.32-1.22-1.52-1.78-.21-.57-.18-.95-.1-.97.18-.06.56,1.36,1.96,2.18,1.4.83,2.82.48,2.85.66Z"/>
      </g>
      <g>
        <g>
          <path class="cls-8" d="M599.32,197.64l2.21,20.83,30.84,7.97s.91,10.86,0,11.12c-.91.25-38.4.61-41.76-4.59-3.36-5.2-.43.95-.83,0s-6.13-31.84-6.13-31.84l15.68-3.49Z"/>
          <path class="cls-8" d="M623.06,236.5s8.52,1.01,10.51,1.06c1.99.05,7.62-1.37,7.62-1.37,0,0,9.2,1.76,9.67,1.28.47-.49,1.1-1.04.53-1.44-.57-.41-7.59-2.7-7.59-2.7l4.81-.07s6.9,1.91,7.43,1.72c.53-.19,1.25-1.03.85-1.72l-.4-.69s.53-1.3-.62-1.89l-.65-.26.18-.58s.31-1.35-1.04-2.3c-1.34-.95-4.17-3.05-4.17-3.05l-8.85-1.37-17.01,2.53"/>
          <path class="cls-11" d="M624.38,233.37s.31.39,1.03.89c.71.49,1.92.99,3.47.99,1.55.02,3.36-.55,5.26-1.39,1.91-.8,4.04-1.91,6.56-2.04.63-.04,1.25.07,1.75-.03.49-.05.88-.52.81-.89-.06-.37-.65-.48-1.18-.61-.53-.13-1.05-.26-1.56-.38-2.01-.5-3.83-.96-5.4-1.35-1.46-.38-2.68-.7-3.63-.96-.85-.24-1.32-.38-1.31-.42,0-.03.49.05,1.36.22.96.21,2.2.48,3.67.79,1.58.36,3.41.78,5.43,1.24.51.12,1.03.24,1.57.37.26.07.54.11.84.23.29.1.64.35.73.75.13.8-.55,1.41-1.21,1.51-.66.12-1.25,0-1.83.04-2.36.12-4.46,1.17-6.39,1.96-1.93.82-3.82,1.38-5.45,1.31-1.63-.05-2.88-.63-3.58-1.2-.36-.28-.58-.55-.73-.74-.13-.2-.2-.3-.18-.31Z"/>
          <path class="cls-11" d="M640.36,227.74c.01-.16,3.36.24,7.44-.25.51-.06,1-.13,1.47-.2l.12-.02.09.07c2.61,2.16,5.24,2.62,5.18,2.77,0,.05-.66,0-1.7-.32-1.03-.32-2.44-.96-3.8-2.06l.2.05c-.48.08-.98.16-1.5.22-2.07.25-3.97.22-5.32.1-1.36-.12-2.18-.3-2.17-.37Z"/>
          <path class="cls-11" d="M648.49,230.61c.07-.14,1.79.6,4.03,1.08,2.24.49,4.12.54,4.12.69.01.13-1.92.33-4.23-.18-2.31-.49-3.99-1.47-3.92-1.58Z"/>
        </g>
        <path class="cls-14" d="M592.83,272.5s-2.35-63.81-3.54-74.88c-1.18-11.07-4.06-30.98-4.06-30.98l-9.99-3.7.04.09c.11,1.24.04,6.2-3.79,6.94-10.25,1.98-19.37-9.43-19.37-9.43l-20.13,10.02,2.25,57.91-5.96,40.9,64.55,3.13Z"/>
        <path class="cls-8" d="M580.18,225.88l-40.04-4.32,4.23-26.55-14.44-5.95h-5.17s-2.89,29.14-3.57,34.57c-.71,5.75.02,15.27,12.33,15.82,6.04.27,45.74-2.66,45.74-2.66l.92-10.89Z"/>
        <path class="cls-14" d="M540.47,171.8c8.58,5.03,5.51,35.09,5.51,35.09l-26.08-.82,3.38-23.86c.67-3.68,2.8-6.81,5.49-9.4,1.44-1.39,3.69-2.68,5.6-2.96,3.9-.56,6.1,1.94,6.1,1.94Z"/>
        <path class="cls-14" d="M594.92,175.21c-2.72-6.34-9.8-8.61-9.8-8.61l2.78,38.01,13.86-1.03s-3.37-20.3-6.83-28.37Z"/>
        <path class="cls-3" d="M588.85,179.22c.14,0,.65,7.83,1.14,17.49.49,9.67.76,17.51.62,17.52-.14,0-.65-7.82-1.14-17.49-.49-9.67-.76-17.51-.62-17.52Z"/>
        <g>
          <g>
            <path class="cls-8" d="M575.86,236.5s8.52,1.01,10.51,1.06c1.99.05,7.62-1.37,7.62-1.37,0,0,9.2,1.76,9.67,1.28.47-.49,1.1-1.04.53-1.44-.57-.41-7.59-2.7-7.59-2.7l4.81-.07s6.9,1.91,7.43,1.72c.53-.19,1.25-1.03.85-1.72l-.4-.69s.53-1.3-.62-1.89l-.65-.26.18-.58s.31-1.35-1.04-2.3-4.17-3.05-4.17-3.05l-8.85-1.37-17.01,2.53"/>
            <path class="cls-11" d="M577.15,225.65s.1-.04.3-.08c.23-.04.52-.1.89-.16.82-.14,1.96-.32,3.4-.56,2.99-.47,7.23-1.13,12.39-1.93h.03s.03,0,.03,0c2.67.4,5.66.86,8.86,1.34h.06s.05.04.05.04c1,.73,2.03,1.48,3.08,2.25.52.41,1.07.71,1.6,1.25.49.55.76,1.31.62,2.1h0s0,.02,0,.02c-.06.18-.12.38-.18.58l-.15-.31c.2.08.42.17.65.26h0s.01,0,.01,0c.34.17.69.51.81.94.12.43.08.85-.06,1.27l-.02-.22c.16.3.32.5.49.89.15.41.01.84-.19,1.15-.21.32-.47.57-.85.74-.1.03-.28.05-.35.03l-.27-.03-.5-.09c-1.32-.26-2.62-.6-3.94-.94-.86-.23-1.71-.46-2.56-.69h.07c-1.63.03-3.23.05-4.81.07l.08-.5c1.74.57,3.44,1.14,5.09,1.72.83.3,1.62.56,2.45.95.11.06.23.14.32.27.1.13.14.32.11.48-.06.31-.23.48-.37.66-.15.17-.3.32-.44.46-.21.17-.33.13-.44.15-.12.01-.22,0-.33,0-1.69-.08-3.25-.37-4.77-.61-1.52-.25-2.96-.52-4.35-.79h.09c-2.73.63-5.2,1.22-7.49,1.33-2.27-.1-4.18-.38-5.77-.55-1.55-.2-2.77-.35-3.65-.46-.39-.06-.7-.1-.95-.14-.21-.04-.32-.06-.32-.07,0-.01.11,0,.33,0,.25.02.57.05.96.08.89.09,2.12.2,3.67.35,1.58.14,3.53.38,5.74.45,2.2-.13,4.69-.75,7.39-1.4h.05s.05,0,.05,0c1.38.25,2.83.51,4.34.75,1.51.23,3.1.5,4.7.57.1,0,.2,0,.28,0,.09,0,.19-.04.14-.01.15-.15.29-.3.42-.44.12-.14.24-.31.25-.42.02-.09-.03-.16-.19-.25-.71-.33-1.56-.61-2.37-.9-1.64-.57-3.34-1.14-5.08-1.71l-1.46-.48,1.54-.02c1.58-.02,3.18-.05,4.81-.07h.04s.04,0,.04,0c.84.23,1.69.45,2.55.68,1.31.34,2.62.68,3.9.93l.48.08c.16.02.31.03.36.02.23-.09.46-.3.61-.53.15-.23.21-.49.14-.7-.09-.21-.3-.54-.45-.8l-.06-.11.04-.12c.1-.29.14-.65.05-.93-.08-.29-.29-.5-.55-.63h.02c-.22-.08-.45-.17-.65-.25l-.22-.09.07-.22c.06-.2.13-.4.19-.58v.02c.09-.57-.11-1.22-.51-1.66-.4-.42-1.01-.79-1.52-1.19-1.05-.78-2.08-1.53-3.08-2.27l.1.04c-3.19-.51-6.18-.98-8.85-1.4h.06c-5.18.73-9.42,1.33-12.42,1.76-1.44.19-2.59.34-3.41.45-.36.04-.66.08-.89.1-.2.02-.31.03-.31.02Z"/>
          </g>
          <path class="cls-11" d="M595.52,228.91s.78.35,2.12.49c1.33.19,3.22.09,5.1.77.93.35,1.75.87,2.55,1.27.8.41,1.54.72,2.17.95,1.27.46,2.09.62,2.1.57.02-.06-.77-.32-1.99-.84-.61-.26-1.33-.6-2.1-1.02-.77-.41-1.6-.95-2.58-1.32-.99-.37-1.98-.49-2.87-.56-.89-.06-1.68-.07-2.35-.11-1.33-.06-2.13-.26-2.15-.2Z"/>
          <path class="cls-11" d="M596.46,226.46c-.02.05.7.3,1.91.37,1.19.09,2.85.02,4.45.87,1.62.8,3.08,1.57,4.15,2.07,1.07.52,1.75.81,1.78.76.03-.05-.6-.44-1.64-1.02-1.04-.58-2.47-1.38-4.11-2.19-.82-.4-1.71-.66-2.51-.73-.8-.08-1.51-.05-2.1-.06-1.18,0-1.9-.13-1.92-.07Z"/>
        </g>
        <path class="cls-3" d="M521.6,206.13s.16-.03.47-.04c.37,0,.81,0,1.34,0,1.25.02,2.91.04,4.92.07,4.15.08,9.89.23,16.23.43.48.02.96.03,1.43.05l-.27.27c-.15-4.84-.29-9.27-.41-12.83v.02c-.29-2.66-.39-4.82-.51-6.33-.05-.7-.09-1.27-.12-1.73-.02-.4-.04-.61-.02-.61.02,0,.07.2.13.6.06.39.14.98.23,1.73.18,1.49.35,3.67.68,6.29h0s0,.02,0,.02c.14,3.56.32,7.98.52,12.83v.28s-.27,0-.27,0c-.47-.01-.95-.03-1.43-.04-6.34-.2-12.07-.41-16.22-.59-2.01-.1-3.67-.18-4.92-.24-.53-.04-.97-.07-1.34-.09-.31-.03-.47-.05-.46-.07Z"/>
      </g>
      <g>
        <rect class="cls-6" x="634.13" y="339.02" width="7.94" height="95.65"/>
        <g>
          <rect class="cls-6" x="624.18" y="322.29" width="3.45" height="6.48"/>
          <rect class="cls-6" x="627.37" y="324.24" width="3.96" height="2.68"/>
        </g>
        <g>
          <rect class="cls-6" x="630.52" y="245.71" width="15.14" height="93.31"/>
          <path class="cls-3" d="M645.67,339.02s-.01-.17-.02-.48c0-.33,0-.79-.02-1.39,0-1.24-.02-3.03-.03-5.34-.02-4.65-.04-11.37-.08-19.73-.03-16.72-.07-40.01-.11-66.36l.26.26c-4.85,0-9.95,0-15.14,0h0l.26-.26c-.06,39.95-.1,74.83-.13,93.31l-.13-.13c4.85.03,8.62.06,11.2.07,1.27.01,2.25.02,2.93.03.32,0,.57.01.75.01.17,0,.26,0,.26.01,0,0-.08,0-.24.01-.18,0-.42,0-.73.01-.67,0-1.64.02-2.9.03-2.6.02-6.39.04-11.27.07h-.13s0-.13,0-.13c-.03-18.48-.07-53.36-.13-93.31v-.26s.26,0,.26,0h0c5.19,0,10.29,0,15.14,0h.26v.26c-.05,26.42-.09,49.78-.11,66.54-.03,8.34-.06,15.03-.08,19.67-.02,2.28-.03,4.06-.03,5.28,0,.58-.01,1.03-.02,1.36,0,.3-.02.45-.02.45Z"/>
        </g>
        <rect class="cls-6" x="608.27" y="432.86" width="59.38" height="4.25"/>
        <g>
          <rect class="cls-7" x="509.31" y="236.65" width="202.57" height="9.06"/>
          <path class="cls-3" d="M711.88,245.71s0-.19-.01-.55c0-.38,0-.93-.02-1.66,0-1.49-.02-3.75-.04-6.84l.07.07c-24.52.02-105.97.1-202.56.19h-.01l.26-.26c0,3.1,0,6.19,0,9.05l-.26-.26c56.36.04,106.96.08,143.49.11,18.28.03,33.03.06,43.23.08,5.09.02,9.05.03,11.74.04,1.34,0,2.36.01,3.06.02.69,0,1.05.02,1.05.02,0,0-.34.01-1.02.02-.69,0-1.7.01-3.02.02-2.68,0-6.61.02-11.68.04-10.18.02-24.91.05-43.17.08-36.58.03-87.25.07-143.68.11h-.26s0-.26,0-.26c0-2.87,0-5.95,0-9.05v-.26s.26,0,.26,0h.01c96.59.09,178.04.17,202.56.19h.07s0,.07,0,.07c-.02,3.11-.03,5.37-.04,6.88,0,.73-.01,1.28-.02,1.65,0,.36-.01.53-.01.53Z"/>
        </g>
      </g>
      <g>
        <g>
          <path class="cls-6" d="M673.46,184.04h-56.07c-1.86,0-3.63.97-3.91,2.96l-7.47,45.8h-29.51c-.95,0-1.72.84-1.72,1.87s.77,1.87,1.72,1.87h94.24l6.44-47.8c.34-2.47-1.42-4.69-3.72-4.69Z"/>
          <path class="cls-3" d="M673.46,184.04s.34-.02.96.15c.61.17,1.53.65,2.18,1.74.31.54.56,1.22.58,1.99.02.39-.04.79-.09,1.21-.06.42-.12.86-.18,1.32-.25,1.82-.54,3.93-.86,6.29-1.28,9.45-3.13,23.08-5.4,39.78l.09-.08c-24.62,0-56.46-.02-91.11-.03-.83,0-1.66,0-2.49,0h-.62c-.19,0-.38-.04-.56-.11-.36-.14-.66-.42-.83-.76-.37-.68-.25-1.6.3-2.15.27-.28.63-.45,1.01-.46h1.22c3.27,0,6.51,0,9.71,0,6.4,0,12.63,0,18.64,0h.1l.02-.1c2.5-15.37,4.83-29.7,6.93-42.57.13-.8.26-1.6.39-2.39.07-.39.12-.8.2-1.17.09-.38.25-.73.47-1.05.44-.63,1.11-1.07,1.84-1.29.36-.11.74-.18,1.12-.21.38-.02.77,0,1.15-.01,3.06,0,6.03,0,8.88,0,5.71,0,10.99-.01,15.79-.01,9.59-.01,17.23-.03,22.48-.03,2.62,0,4.64-.02,6.02-.02.68,0,1.2,0,1.55-.01.35,0,.53-.01.53-.01,0,0-.18,0-.53-.01-.35,0-.87,0-1.55-.01-1.37,0-3.39-.01-6.02-.02-5.25,0-12.89-.02-22.48-.03-4.8,0-10.08,0-15.79-.01-2.86,0-5.82,0-8.88,0-.38,0-.76,0-1.16.01-.39.03-.78.09-1.16.21-.76.23-1.48.68-1.94,1.36-.23.33-.4.72-.5,1.11-.08.4-.14.79-.2,1.19-.13.79-.26,1.59-.39,2.39-2.1,12.86-4.45,27.19-6.96,42.56l.12-.1c-6.01,0-12.25,0-18.64,0-3.2,0-6.44,0-9.71,0h-1.23c-.44.02-.87.22-1.18.54-.63.63-.76,1.66-.34,2.43.2.39.54.71.96.88.21.08.43.12.65.13h.62c.83,0,1.66,0,2.49,0,34.65-.01,66.49-.02,91.11-.03h.08v-.08c2.24-16.7,4.07-30.33,5.33-39.79.31-2.36.59-4.47.83-6.29.06-.46.12-.89.17-1.32.05-.42.11-.83.09-1.22-.03-.79-.28-1.47-.6-2.02-.66-1.11-1.6-1.57-2.22-1.74-.31-.09-.56-.12-.72-.12-.16,0-.25,0-.25,0Z"/>
        </g>
        <path class="cls-5" d="M639.43,211.51c0,2.15,1.74,3.89,3.89,3.89s3.89-1.74,3.89-3.89-1.74-3.89-3.89-3.89-3.89,1.74-3.89,3.89Z"/>
        <path class="cls-3" d="M608.86,236.07c.09.01,2.07-11.52,4.42-25.76,2.35-14.24,4.19-25.8,4.1-25.81-.09-.01-2.07,11.52-4.42,25.76-2.35,14.24-4.19,25.8-4.1,25.81Z"/>
      </g>
    </g>
  </g>
  <g id="Character_1" data-name="Character 1">
    <g>
      <g>
        <g>
          <path class="cls-3" d="M143.36,187.33l-12.96,9.59c1.33,3.86,2.67,7.73,4,11.59,5.83-5.34,9.18-13.28,8.95-21.18Z"/>
          <g>
            <path class="cls-3" d="M113.19,164.27c3.44-1.88,7.59-2.15,11.42-1.38,3.84.77,7.42,2.51,10.8,4.47,1.9,1.1,3.8,2.31,5.16,4.03,2.49,3.14,4.96,8.29,5.2,12.29.19,3.24-1.04,11.34-2.41,14.28-1.26,2.7-7.13,4.75-10.03,5.42l-26.6-30.94c.94-3.44,3.32-6.45,6.45-8.16Z"/>
            <path class="cls-3" d="M108.6,168.44l6.38-1.14c-3.49,8.3-4.43,27.29-6.43,36.07-2.35-3.41-7.81-13.8-7.52-17.93.29-4.13-.01-17.7,7.57-17Z"/>
            <path class="cls-8" d="M138.84,182.26c-.34-4.85-3.48-8.83-8.2-10.03l-14.69-3.75c-6.35-.69-10.59,7.12-11,13.49-.46,7.08-.75,14.55.08,19.83,1.66,10.62,9.8,11.99,9.8,11.99,0-.02,0,5.05,0,8.15l4.92,20.35,16.38-17.68,2.73-42.23c0-.18-.02.11-.04-.13Z"/>
            <path class="cls-3" d="M108.14,190c-.03.72.56,1.34,1.31,1.38.75.04,1.38-.51,1.41-1.22.03-.72-.56-1.34-1.31-1.38-.75-.04-1.38.51-1.41,1.23Z"/>
            <path class="cls-3" d="M106.55,186.14c.17.18,1.2-.58,2.67-.58,1.46-.01,2.54.74,2.7.56.08-.08-.09-.4-.56-.74-.46-.34-1.25-.67-2.16-.67-.91,0-1.68.34-2.12.68-.45.34-.61.67-.52.75Z"/>
            <path class="cls-3" d="M120.92,190c-.03.72.56,1.34,1.31,1.38.75.04,1.38-.51,1.41-1.22.03-.72-.56-1.34-1.31-1.38-.75-.04-1.38.51-1.41,1.23Z"/>
            <path class="cls-3" d="M120.47,186.14c.17.18,1.2-.58,2.67-.58,1.46-.01,2.54.74,2.7.56.08-.08-.09-.4-.56-.74-.46-.34-1.25-.67-2.16-.67-.91,0-1.68.34-2.12.68-.45.34-.6.67-.52.75Z"/>
            <path class="cls-3" d="M115.88,197.65c0-.08-.9-.24-2.38-.43-.37-.04-.73-.11-.79-.37-.09-.27.07-.67.25-1.11.35-.9.72-1.85,1.11-2.85,1.55-4.05,2.67-7.39,2.5-7.45-.16-.06-1.55,3.18-3.1,7.23-.37,1-.73,1.95-1.07,2.86-.14.43-.39.91-.2,1.47.1.28.37.48.61.55.24.07.45.08.64.09,1.49.08,2.41.09,2.41,0Z"/>
            <path class="cls-11" d="M128.92,210.02s-3.46,7.3-14.08,6.28v-2.5s7,.46,14.08-3.78Z"/>
            <path class="cls-3" d="M120.93,180.84c.14.4,1.61.21,3.33.42,1.72.18,3.11.68,3.34.33.1-.17-.14-.55-.7-.93-.55-.39-1.44-.75-2.47-.87-1.03-.11-1.98.05-2.6.3-.63.25-.95.57-.89.75Z"/>
            <path class="cls-3" d="M107.03,181.66c.26.33,1.27,0,2.48-.02,1.21-.06,2.24.23,2.48-.12.1-.17-.06-.5-.51-.82-.44-.31-1.18-.57-2.02-.55-.83.03-1.56.32-1.98.66-.43.34-.57.68-.46.85Z"/>
            <path class="cls-3" d="M107.84,172.28c.65-1.6,2.4-2.56,4.13-2.65,1.72-.09,3.41.57,4.9,1.43,6.33,3.66,9.58,12.49,15.83,16.27,1.54.93,3.54.08,4.85,1.31s2.16,3.2,1.43,4.85c.84-1.15,1.69-2.32,2.17-3.67s.54-2.91-.18-4.14c-.54-.94-1.5-1.65-1.76-2.7-.23-.92.13-1.89.09-2.84-.04-.97-.5-1.87-.97-2.71-2.45-4.33-5.82-8.25-10.15-10.68-2.83-1.59-6.07-2.52-9.32-2.41-3.25.11-6.49,1.3-8.87,3.52-1.4,1.3-2.87,2.65-2.14,4.42"/>
            <g>
              <path class="cls-8" d="M137.38,189.96c.11-.3,5.65-2.3,5.73,3.58.07,5.72-5.7,4.59-5.71,4.43-.01-.16-.01-8.02-.01-8.02Z"/>
              <path class="cls-11" d="M139.14,195.79s.1.07.27.14c.16.07.45.12.75,0,.6-.23,1.1-1.19,1.12-2.22,0-.52-.1-1.02-.29-1.42-.18-.42-.45-.71-.76-.76-.3-.07-.52.12-.59.28-.08.16-.04.27-.07.28-.02.01-.12-.09-.08-.33.02-.11.09-.25.22-.36.14-.11.34-.17.55-.15.44.03.84.43,1.05.88.23.45.37,1.01.36,1.59-.03,1.15-.61,2.24-1.43,2.48-.4.11-.74,0-.91-.14-.18-.14-.21-.27-.19-.28Z"/>
            </g>
            <path class="cls-7" d="M139.66,187.02s-.12-.06-.35-.19c-.22-.14-.56-.32-.96-.61-.8-.58-1.91-1.49-3.09-2.81-1.19-1.31-2.43-3.01-3.78-4.91-1.35-1.89-2.83-3.99-4.72-5.88-.96-.92-1.97-1.75-3.05-2.41-1.07-.66-2.19-1.14-3.29-1.49-2.2-.71-4.32-.86-6.06-.74-1.75.11-3.13.48-4.06.8-.47.14-.82.3-1.06.39-.24.09-.37.14-.37.13,0,0,.12-.07.35-.18.24-.11.58-.28,1.05-.44.92-.35,2.31-.75,4.08-.88,1.76-.14,3.91,0,6.15.7,1.12.35,2.26.84,3.35,1.5,1.09.66,2.12,1.5,3.1,2.44,1.91,1.91,3.4,4.03,4.73,5.93,1.34,1.9,2.56,3.61,3.72,4.92,1.15,1.32,2.23,2.25,3.01,2.85.39.3.72.49.93.65.21.15.32.23.32.24Z"/>
            <g>
              <path class="cls-5" d="M139.79,196.8c.56-.1,1.16.28,1.3.83.14.55-.21,1.18-.75,1.35-.54.17-1.19-.14-1.39-.67s.06-1.19.58-1.43"/>
              <path class="cls-3" d="M139.52,196.89s-.37.2-.51.77c-.07.27-.03.63.22.9.24.26.67.43,1.07.31.39-.13.65-.51.69-.87.05-.36-.13-.68-.34-.86-.45-.38-.87-.28-.86-.33,0-.01.09-.06.27-.06.18,0,.45.05.71.25.26.19.51.57.46,1.03-.04.44-.34.92-.85,1.09-.52.16-1.04-.06-1.32-.39-.31-.34-.33-.8-.22-1.11.1-.32.29-.52.44-.62.15-.1.25-.12.26-.1Z"/>
            </g>
          </g>
          <path class="cls-3" d="M138.22,188.64c.09,1.56.16,3.21-.56,4.6-.72,1.39-2.54,2.33-3.9,1.56-1.11-.63-1.44-2.05-1.63-3.32-.54-3.64-.79-7.33-1.36-10.97l7.45,8.12Z"/>
          <path class="cls-7" d="M109.25,169.56s.51-.1,1.42-.12c.91-.02,2.26.1,3.79.69.76.3,1.57.69,2.37,1.22.8.53,1.62,1.17,2.45,1.87,1.64,1.42,3.34,3.12,4.79,5.16.73,1.02,1.37,2.07,2.07,3.04.69.97,1.46,1.86,2.29,2.58,1.66,1.44,3.38,2.46,4.83,3.23,1.46.77,2.69,1.32,3.53,1.69.4.17.72.31.98.42.23.09.35.13.35.12,0-.01-.11-.07-.32-.18-.25-.12-.56-.28-.95-.47-.83-.41-2.03-.98-3.48-1.78-1.44-.8-3.12-1.82-4.75-3.26-.81-.71-1.55-1.57-2.23-2.54-.68-.96-1.33-2.01-2.06-3.04-1.47-2.07-3.19-3.78-4.86-5.2-.84-.7-1.67-1.34-2.49-1.87-.82-.53-1.66-.92-2.44-1.21-1.57-.58-2.95-.67-3.87-.6-.46.03-.82.09-1.06.15-.24.06-.36.09-.36.1Z"/>
          <path class="cls-7" d="M138.38,185.1s.17.14.51.34c.39.23.87.51,1.45.85.16.09.32.18.49.28.18.1.38.19.63.21.12,0,.26,0,.39-.09.12-.08.2-.23.21-.38.01-.3-.15-.52-.27-.72-.52-.83-1.08-1.73-1.68-2.69l-.23.21c.54.4,1.16.71,1.84.92.68.2,1.38.28,2.05.24.16,0,.35-.03.52-.09.17-.06.36-.17.44-.39.08-.21,0-.44-.1-.58-.1-.15-.22-.26-.33-.36-.85-.82-1.49-1.69-1.95-2.46-.92-1.55-1.18-2.66-1.24-2.63-.02,0,.03.28.18.77.15.48.42,1.18.86,1.98.44.8,1.08,1.7,1.94,2.55.21.2.43.43.34.61-.07.18-.39.27-.69.27-.63.03-1.29-.04-1.94-.23-.64-.19-1.23-.49-1.74-.86l-.68-.5.46.71c.61.95,1.19,1.85,1.72,2.67.13.2.25.39.24.56,0,.16-.15.26-.33.24-.37-.02-.71-.27-1.03-.42-.59-.3-1.09-.56-1.49-.77-.35-.17-.55-.26-.56-.24Z"/>
        </g>
        <path class="cls-11" d="M121.46,200.35c-.19-.87-1.09-1.54-1.98-1.45-.65.07-1.24.51-1.54,1.09-.3.59-.31,1.3-.09,1.91l.03.14c.6.66,1.64.9,2.45.52.81-.37,1.31-1.34,1.12-2.21Z"/>
        <path class="cls-3" d="M116.83,202.08c0-.22,1.48-.15,2.6-1.37,1.12-1.21,1.03-2.8,1.24-2.8.09-.02.27.37.26,1.03-.01.66-.27,1.6-.95,2.34-.68.74-1.56,1.03-2.17,1.05-.62.03-.98-.16-.97-.26Z"/>
      </g>
      <path class="cls-12" d="M94.24,315.68c1.33-6.89,5.6-30.08,5.6-34.77,0-.77-1.2-3.18-1.42-3.93-1.25-4.19-5.59-19.59-4.61-27.7.78-6.49,6.27-14.79,7.92-19.23.77-2.09,6.94-4.24,9-5.1l4.37-6.18s-.95,2.87,2.91,5.45c2.07,1.38,4.56,1.98,7.05,1.87,5.46-.24,9.87-2.86,12.86-6.33l.72.56c14.12,4.55,13.97,4.58,16.68,5.72,3.49,1.47-7.57,37.29-7.57,37.29,0,0-6.53,24.19-3.01,31.68,1.98,4.22,8.66,11.19,10.35,15.12,0,0,2.94,4.11,3,5.14.06,1.03-17.39,8.59-31.15,9.35-25.48,1.41-32.68-8.95-32.68-8.95Z"/>
      <g>
        <g>
          <rect class="cls-3" x="92.13" y="378.56" width="111.94" height="29.15" rx="3.76" ry="3.76"/>
          <rect class="cls-5" x="142.52" y="385.52" width="49.64" height="16.46" rx=".71" ry=".71"/>
          <g>
            <circle class="cls-3" cx="117.66" cy="393.75" r="5.96"/>
            <path class="cls-6" d="M117.66,400.71c-3.84,0-6.96-3.12-6.96-6.96s3.12-6.96,6.96-6.96,6.96,3.12,6.96,6.96-3.12,6.96-6.96,6.96ZM117.66,388.79c-2.73,0-4.96,2.22-4.96,4.96s2.22,4.96,4.96,4.96,4.96-2.22,4.96-4.96-2.22-4.96-4.96-4.96Z"/>
          </g>
          <path class="cls-6" d="M147.71,388.34c.14,0,.26,2.47.26,5.52s-.12,5.52-.26,5.52-.26-2.47-.26-5.52.12-5.52.26-5.52Z"/>
          <path class="cls-6" d="M152.54,388.34c.14,0,.26,2.47.26,5.52s-.12,5.52-.26,5.52-.26-2.47-.26-5.52.12-5.52.26-5.52Z"/>
          <path class="cls-6" d="M157.37,388.34c.14,0,.26,2.47.26,5.52s-.12,5.52-.26,5.52-.26-2.47-.26-5.52.12-5.52.26-5.52Z"/>
          <path class="cls-6" d="M162.2,388.34c.14,0,.26,2.47.26,5.52s-.12,5.52-.26,5.52-.26-2.47-.26-5.52.12-5.52.26-5.52Z"/>
          <path class="cls-6" d="M167.03,388.34c.14,0,.26,2.47.26,5.52s-.12,5.52-.26,5.52-.26-2.47-.26-5.52.12-5.52.26-5.52Z"/>
          <path class="cls-6" d="M171.85,388.34c.14,0,.26,2.47.26,5.52s-.12,5.52-.26,5.52-.26-2.47-.26-5.52.12-5.52.26-5.52Z"/>
          <path class="cls-6" d="M176.68,388.34c.14,0,.26,2.47.26,5.52s-.12,5.52-.26,5.52-.26-2.47-.26-5.52.12-5.52.26-5.52Z"/>
          <path class="cls-6" d="M181.51,388.34c.14,0,.26,2.47.26,5.52s-.12,5.52-.26,5.52-.26-2.47-.26-5.52.12-5.52.26-5.52Z"/>
          <path class="cls-6" d="M186.34,388.34c.14,0,.26,2.47.26,5.52s-.12,5.52-.26,5.52-.26-2.47-.26-5.52.12-5.52.26-5.52Z"/>
        </g>
        <g>
          <path class="cls-2" d="M95.89,350.5h104.43c2.07,0,3.76,1.68,3.76,3.76v21.64c0,2.07-1.68,3.76-3.76,3.76h-104.43c-2.07,0-3.76-1.68-3.76-3.76v-21.64c0-2.07,1.68-3.76,3.76-3.76Z"/>
          <rect class="cls-5" x="142.52" y="357.45" width="49.64" height="16.46" rx=".71" ry=".71"/>
          <g>
            <circle class="cls-3" cx="117.66" cy="365.68" r="5.96"/>
            <path class="cls-6" d="M117.66,372.64c-3.84,0-6.96-3.12-6.96-6.96s3.12-6.96,6.96-6.96,6.96,3.12,6.96,6.96-3.12,6.96-6.96,6.96ZM117.66,360.73c-2.73,0-4.96,2.22-4.96,4.96s2.22,4.96,4.96,4.96,4.96-2.22,4.96-4.96-2.22-4.96-4.96-4.96Z"/>
          </g>
          <path class="cls-6" d="M147.71,360.27c.14,0,.26,2.47.26,5.52s-.12,5.52-.26,5.52-.26-2.47-.26-5.52.12-5.52.26-5.52Z"/>
          <path class="cls-6" d="M152.54,360.27c.14,0,.26,2.47.26,5.52s-.12,5.52-.26,5.52-.26-2.47-.26-5.52.12-5.52.26-5.52Z"/>
          <path class="cls-6" d="M157.37,360.27c.14,0,.26,2.47.26,5.52s-.12,5.52-.26,5.52-.26-2.47-.26-5.52.12-5.52.26-5.52Z"/>
          <path class="cls-6" d="M162.2,360.27c.14,0,.26,2.47.26,5.52s-.12,5.52-.26,5.52-.26-2.47-.26-5.52.12-5.52.26-5.52Z"/>
          <path class="cls-6" d="M167.03,360.27c.14,0,.26,2.47.26,5.52s-.12,5.52-.26,5.52-.26-2.47-.26-5.52.12-5.52.26-5.52Z"/>
          <path class="cls-6" d="M171.85,360.27c.14,0,.26,2.47.26,5.52s-.12,5.52-.26,5.52-.26-2.47-.26-5.52.12-5.52.26-5.52Z"/>
          <path class="cls-6" d="M176.68,360.27c.14,0,.26,2.47.26,5.52s-.12,5.52-.26,5.52-.26-2.47-.26-5.52.12-5.52.26-5.52Z"/>
          <path class="cls-6" d="M181.51,360.27c.14,0,.26,2.47.26,5.52s-.12,5.52-.26,5.52-.26-2.47-.26-5.52.12-5.52.26-5.52Z"/>
          <path class="cls-6" d="M186.34,360.27c.14,0,.26,2.47.26,5.52s-.12,5.52-.26,5.52-.26-2.47-.26-5.52.12-5.52.26-5.52Z"/>
        </g>
        <g>
          <path class="cls-6" d="M95.89,407.87h104.43c2.07,0,3.76,1.68,3.76,3.76v21.64c0,2.07-1.68,3.76-3.76,3.76h-104.43c-2.07,0-3.76-1.68-3.76-3.76v-21.64c0-2.07,1.68-3.76,3.76-3.76Z"/>
          <rect class="cls-5" x="142.52" y="414.83" width="49.64" height="16.46" rx=".71" ry=".71"/>
          <g>
            <path class="cls-3" d="M123.61,423.06c0-3.29-2.67-5.96-5.96-5.96s-5.96,2.67-5.96,5.96,2.67,5.96,5.96,5.96,5.96-2.67,5.96-5.96Z"/>
            <path class="cls-12" d="M117.66,430.02c-3.84,0-6.96-3.12-6.96-6.96s3.12-6.96,6.96-6.96,6.96,3.12,6.96,6.96-3.12,6.96-6.96,6.96ZM117.66,418.1c-2.73,0-4.96,2.22-4.96,4.96s2.22,4.96,4.96,4.96,4.96-2.22,4.96-4.96-2.22-4.96-4.96-4.96Z"/>
          </g>
          <path class="cls-6" d="M147.71,417.64c.14,0,.26,2.47.26,5.52s-.12,5.52-.26,5.52-.26-2.47-.26-5.52.12-5.52.26-5.52Z"/>
          <path class="cls-6" d="M152.54,417.64c.14,0,.26,2.47.26,5.52s-.12,5.52-.26,5.52-.26-2.47-.26-5.52.12-5.52.26-5.52Z"/>
          <path class="cls-6" d="M157.37,417.64c.14,0,.26,2.47.26,5.52s-.12,5.52-.26,5.52-.26-2.47-.26-5.52.12-5.52.26-5.52Z"/>
          <path class="cls-6" d="M162.2,417.64c.14,0,.26,2.47.26,5.52s-.12,5.52-.26,5.52-.26-2.47-.26-5.52.12-5.52.26-5.52Z"/>
          <path class="cls-6" d="M167.03,417.64c.14,0,.26,2.47.26,5.52s-.12,5.52-.26,5.52-.26-2.47-.26-5.52.12-5.52.26-5.52Z"/>
          <path class="cls-6" d="M171.85,417.64c.14,0,.26,2.47.26,5.52s-.12,5.52-.26,5.52-.26-2.47-.26-5.52.12-5.52.26-5.52Z"/>
          <path class="cls-6" d="M176.68,417.64c.14,0,.26,2.47.26,5.52s-.12,5.52-.26,5.52-.26-2.47-.26-5.52.12-5.52.26-5.52Z"/>
          <path class="cls-6" d="M181.51,417.64c.14,0,.26,2.47.26,5.52s-.12,5.52-.26,5.52-.26-2.47-.26-5.52.12-5.52.26-5.52Z"/>
          <path class="cls-6" d="M186.34,417.64c.14,0,.26,2.47.26,5.52s-.12,5.52-.26,5.52-.26-2.47-.26-5.52.12-5.52.26-5.52Z"/>
        </g>
      </g>
      <g>
        <g>
          <path class="cls-7" d="M38.43,378.21l-8.29,17.89s-20.7-2.74-22.55.42l33.84,17.64,14.06-27.35-17.06-8.6Z"/>
          <path class="cls-6" d="M41.19,399.93c.57.52.65,1.5.16,2.09-.5.59-1.49.68-2.07.17-.58-.51-.71-1.68-.15-2.22.56-.53,1.74-.58,2.18.06"/>
          <path class="cls-3" d="M41.44,414.17l1.12-2.18-33.19-16.46s-1.42.12-2.04,1.1l34.11,17.54Z"/>
          <path class="cls-3" d="M29.78,396.06c-.08.17.72.67,1.27,1.63.58.94.63,1.89.82,1.9.17.05.43-1.08-.26-2.23-.68-1.15-1.79-1.47-1.84-1.3Z"/>
          <path class="cls-3" d="M25.42,395.72c-.12.14.46.8.67,1.8.24.99,0,1.83.16,1.91.14.11.76-.82.48-2.05-.27-1.24-1.22-1.81-1.31-1.65Z"/>
          <path class="cls-3" d="M21.18,399c.13.11.79-.61.83-1.74.04-1.14-.56-1.9-.71-1.8-.16.09.09.84.05,1.78-.02.93-.33,1.67-.17,1.77Z"/>
          <path class="cls-3" d="M32.14,392.17c0,.19.88.35,1.8.89.93.53,1.5,1.22,1.66,1.12.16-.07-.25-1.06-1.33-1.69-1.08-.64-2.14-.5-2.13-.33Z"/>
          <path class="cls-3" d="M33.45,388.07c-.04.07.57.51,1.73.87.57.18,1.28.32,2.08.36.4.02.82.02,1.25-.02.21-.02.45-.03.73-.14.27-.08.61-.47.53-.85-.04-.35-.3-.63-.54-.76-.25-.14-.48-.19-.69-.24-.43-.1-.85-.16-1.26-.18-.81-.03-1.53.07-2.12.24-1.17.33-1.76.82-1.72.88.05.09.7-.23,1.82-.43.56-.1,1.23-.15,1.97-.09.37.03.75.1,1.14.2.41.09.72.24.73.45,0,.08,0,.11-.14.17-.13.06-.32.08-.53.1-.4.04-.8.06-1.17.06-.75,0-1.43-.09-1.99-.21-1.12-.22-1.8-.51-1.84-.42Z"/>
        </g>
        <g>
          <path class="cls-7" d="M70.64,406.97l1.05,19.69s-19.57,7.27-19.73,10.93l38.17-.25-.37-30.75-19.11.38Z"/>
          <path class="cls-6" d="M83.24,424.88c.75.19,1.28,1.02,1.12,1.78-.16.76-1,1.3-1.75,1.12-.75-.18-1.42-1.15-1.18-1.89.24-.73,1.26-1.32,1.95-.97"/>
          <path class="cls-3" d="M90.12,437.34l-.03-2.45-37.04.99s-1.2.77-1.29,1.92l38.35-.46Z"/>
          <path class="cls-3" d="M71.34,426.8c0,.19.95.26,1.89.85.95.56,1.44,1.37,1.61,1.29.17-.04-.13-1.16-1.27-1.85-1.14-.7-2.27-.46-2.23-.29Z"/>
          <path class="cls-3" d="M67.33,428.54c-.04.18.78.49,1.43,1.27.68.77.85,1.62,1.04,1.61.18.03.29-1.08-.54-2.04-.82-.97-1.93-1.03-1.93-.85Z"/>
          <path class="cls-3" d="M65.12,433.41c.17.04.42-.91-.08-1.93-.49-1.03-1.39-1.42-1.46-1.26-.1.16.48.7.88,1.55.42.84.49,1.63.67,1.64Z"/>
          <path class="cls-3" d="M71.6,422.25c.08.17.94-.1,2.01-.05,1.07.03,1.9.37,1.99.21.11-.14-.71-.82-1.97-.87-1.25-.06-2.13.56-2.03.7Z"/>
          <path class="cls-3" d="M70.84,418.02c0,.08.75.18,1.93-.04.59-.11,1.28-.32,2.01-.66.36-.17.73-.37,1.1-.61.18-.12.38-.24.57-.46.21-.2.32-.7.07-1-.2-.29-.55-.41-.83-.42-.28,0-.51.06-.72.11-.43.11-.83.26-1.19.43-.73.35-1.32.78-1.76,1.2-.88.84-1.17,1.55-1.11,1.59.09.06.51-.54,1.41-1.24.45-.35,1.02-.71,1.7-1,.34-.14.71-.27,1.1-.36.41-.11.75-.12.86.06.04.07.04.1-.04.22-.09.11-.25.22-.42.34-.34.23-.68.43-1.01.6-.67.35-1.31.58-1.85.75-1.1.33-1.82.39-1.82.49Z"/>
        </g>
        <g>
          <g>
            <path class="cls-3" d="M157.92,312.42s-78.15-9.26-82.65-9.26c-10.58,0-15.54,7.74-17.12,13.97-1.17,4.6-24.71,71.1-24.71,71.1l17.37,9,25.54-45.38,13.02-22.64,67.07,10.36,1.49-27.15Z"/>
            <path class="cls-3" d="M86.2,327.12s-10.48,0-16.14,8.38c-3.33,4.93-2.16,13.73-2.22,20.38-.09,9.05,2.1,64.19,2.1,64.19l21.44.36,4.49-57.47-.27-10.62,42.8-3.48s3.9-12.97-5.69-23.21c-1.23-1.32-46.51,1.47-46.51,1.47Z"/>
          </g>
          <path class="cls-3" d="M157.89,313.49s6.68,15.42-2.33,28.6c-5.95,8.71-17.37,6.71-17.37,6.71l-15.16-18.99,12.1-18.91,22.77,2.58Z"/>
        </g>
        <path class="cls-7" d="M69.93,420.08s.13-.02.38-.02c.28,0,.65,0,1.11,0,1.01,0,2.44.01,4.27.02,3.74.04,9.09.1,15.68.18l-.19.18c.83-11.54,1.95-27.06,3.17-44.11.41-5.55.81-10.94,1.19-16.06v.02c-.06-2.72-.13-5.36-.19-7.92v-.23s.22-.02.22-.02c12.16-.98,22.53-1.86,29.86-2.52,3.66-.33,6.57-.61,8.55-.83.99-.1,1.75-.22,2.27-.27.5-.09.77-.16.77-.14,0,0-.25.1-.76.22-.51.08-1.27.23-2.26.35-1.98.27-4.88.6-8.54.97-7.32.75-17.69,1.69-29.85,2.71l.22-.25c.07,2.56.14,5.2.21,7.92h0s0,.02,0,.02c-.37,5.13-.77,10.52-1.17,16.07-1.28,17.04-2.44,32.56-3.31,44.1v.18s-.19,0-.19,0c-6.59-.15-11.94-.26-15.68-.35-1.83-.05-3.26-.09-4.27-.12-.46-.02-.83-.03-1.11-.05-.25-.01-.38-.02-.38-.03Z"/>
        <path class="cls-7" d="M138.19,348.8s-.09-.06-.28-.15c-.21-.1-.49-.23-.85-.4-.78-.35-1.88-.85-3.3-1.49-2.89-1.29-7.04-3.14-12.16-5.42-5.15-2.28-11.27-4.98-18.06-7.99-3.4-1.5-6.97-3.07-10.67-4.7-.94-.39-1.83-.85-2.83-1.19-.98-.36-2.01-.59-3.05-.78-2.09-.32-4.25-.33-6.39-.06-2.15.27-4.23.84-6.15,1.75-.94.48-1.87,1-2.64,1.73-.79.7-1.42,1.55-1.94,2.43-1.04,1.78-1.62,3.76-1.79,5.72-.08.99-.03,1.95-.03,2.9,0,.95.02,1.89.03,2.82.08,7.43.16,14.12.23,19.75.08,5.6.14,10.15.19,13.31.03,1.55.06,2.77.07,3.62.01.4.02.71.03.94,0,.21.02.32.02.32,0,0,.01-.11.02-.32,0-.23,0-.54.01-.94,0-.85,0-2.07,0-3.62-.01-3.17-.03-7.71-.05-13.31-.04-5.63-.08-12.32-.13-19.75,0-.93-.01-1.87-.02-2.82,0-.95-.05-1.92.03-2.87.17-1.9.74-3.83,1.74-5.55.5-.85,1.11-1.67,1.86-2.33.73-.69,1.63-1.2,2.54-1.66,1.86-.88,3.91-1.44,6.02-1.7,2.11-.27,4.23-.26,6.27.05,1.01.18,2.02.4,2.97.76.95.32,1.88.79,2.81,1.18,3.7,1.62,7.28,3.19,10.68,4.68,6.81,2.97,12.94,5.65,18.1,7.9,5.14,2.23,9.31,4.03,12.22,5.29,1.43.61,2.55,1.09,3.33,1.42.37.15.65.27.87.36.2.08.3.12.3.11Z"/>
      </g>
      <g>
        <g>
          <path class="cls-3" d="M99.52,271.85s-.03-.45-.17-1.25c-.15-.8-.31-1.96-.47-3.39-.17-1.44-.27-3.16-.3-5.06,0-1.91.08-4.01.33-6.2.26-2.19.66-4.25,1.11-6.11.47-1.85.97-3.5,1.46-4.86.49-1.36.92-2.45,1.24-3.19.32-.75.48-1.16.45-1.18-.03-.01-.24.38-.61,1.11-.37.72-.85,1.8-1.38,3.16-.53,1.35-1.07,3.01-1.56,4.87-.47,1.87-.88,3.95-1.15,6.16-.25,2.21-.33,4.33-.3,6.25.05,1.92.19,3.65.39,5.1.2,1.44.41,2.6.61,3.39.19.79.3,1.22.33,1.22Z"/>
          <path class="cls-14" d="M115.09,218.78l-.04-3.15-3.71,6.04-7.55,2.78c-2.37,2.74-10.06,33.53-8.51,38.62l2.69,30.11-7.66,11.51,13.74,1.47s2.95-2.91,2.21-10.63c-1.87-19.53.06-41.81.35-46.75.42-7.43,8.48-30.01,8.48-30.01Z"/>
          <path class="cls-14" d="M111.34,221.67s-12.39,4.05-14.02,6.39c-4.42,6.35-31.01,49.77-17.96,62.73,8.55,8.48,20.56-9.41,20.56-9.41l11.41-59.7Z"/>
          <path class="cls-3" d="M80.97,273.52s.4-.05,1.13-.2c.79-.17,1.83-.39,3.09-.66,2.63-.55,6.31-1.33,10.52-1.97l-.23-.13c.41,1.05.83,2.13,1.26,3.24,1.08,2.75,2.11,5.35,3.01,7.63l.03-.19c-1.88,2.35-3.48,4.35-4.66,5.82-.53.68-.96,1.23-1.29,1.67-.29.39-.44.6-.43.62.02.01.2-.18.52-.54.36-.42.82-.95,1.38-1.6,1.21-1.45,2.85-3.41,4.78-5.72l.07-.09-.04-.11c-.89-2.29-1.9-4.89-2.96-7.64-.44-1.11-.86-2.2-1.27-3.24l-.06-.16-.16.03c-4.25.65-7.91,1.49-10.53,2.11-1.31.32-2.35.59-3.06.79s-1.1.32-1.09.35Z"/>
          <path class="cls-3" d="M93.7,270.04s-.02-.5-.12-1.39c-.12-.96-.27-2.23-.46-3.76-.36-3.17-.85-7.58-.41-12.42.42-4.85,2.04-9.02,3.43-11.87.7-1.43,1.33-2.56,1.77-3.34.44-.78.69-1.2.66-1.22-.01,0-.09.09-.23.28-.14.19-.34.48-.58.86-.49.75-1.16,1.86-1.9,3.29-1.47,2.83-3.16,7.05-3.59,11.97-.45,4.9.1,9.34.53,12.5.22,1.59.44,2.86.6,3.74.16.88.26,1.37.29,1.36Z"/>
          <path class="cls-3" d="M104.87,264.88s.01-.17,0-.5c-.03-.37-.06-.84-.1-1.42-.11-1.29-.27-3.05-.46-5.21-.21-2.22-.47-4.83-.74-7.73-.14-1.46-.3-2.98-.45-4.56-.08-.79-.17-1.59-.13-2.39.04-.79.21-1.6.65-2.26.5-.76,1.33-1.32,2.19-1.27l.78.05-.65-.44c-1.13-.76-2.22-1.5-3.26-2.2l.06.28c2.55-4.38,4.76-8.17,6.36-10.92.75-1.32,1.36-2.4,1.81-3.19.19-.35.34-.63.47-.86.1-.2.15-.3.14-.31-.01,0-.08.09-.2.27-.14.22-.32.5-.53.83-.48.78-1.12,1.83-1.92,3.13-1.64,2.73-3.89,6.5-6.49,10.84l-.1.17.16.11c1.04.71,2.13,1.45,3.25,2.21l.13-.39c-1.06-.06-2.01.61-2.57,1.46-.5.75-.68,1.64-.72,2.48-.04.84.06,1.66.14,2.45.17,1.58.33,3.1.48,4.56.31,2.89.6,5.5.84,7.72.25,2.15.45,3.92.6,5.2.08.58.14,1.04.18,1.41.05.32.08.49.09.49Z"/>
        </g>
        <g>
          <path class="cls-14" d="M136.55,216.36l3.71,3.98,13.75,4.37s-.53,14.86-3.25,30.11c-3.03,16.96-4.65,34.26-4.74,34.52-.67-1.26,6.91,9.15,11.1,19.37,3.29,8.03,5.1,24.8,5.1,24.8l-34.63,10.61-5.86-62.76,1.53-29.03,13.3-35.97Z"/>
          <path class="cls-3" d="M123.26,267.87s.1-.17.26-.52c.17-.39.39-.89.67-1.51.58-1.31,1.42-3.21,2.51-5.54,2.18-4.65,5.37-11,9.4-17.72.32-.53.64-1.05.95-1.57l.13-.21-.23-.1c-1.33-.55-2.63-1.09-3.9-1.61l.05.36c1.3-1.08,2.81-1.82,4.33-2.18l.14-.03v-.14c.22-2.53.75-4.83,1.23-6.88.48-2.05.9-3.86,1.14-5.38.25-1.52.34-2.74.35-3.57.01-.42,0-.74-.01-.95,0-.22-.02-.33-.03-.33-.03,0-.04.45-.09,1.28-.06.83-.18,2.03-.46,3.54-.27,1.5-.72,3.3-1.22,5.35-.5,2.05-1.06,4.36-1.29,6.92l.15-.18c-1.58.36-3.15,1.12-4.51,2.24l-.27.22.32.13c1.27.53,2.57,1.07,3.9,1.62l-.1-.31c-.31.52-.63,1.04-.95,1.57-4.04,6.74-7.2,13.12-9.31,17.81-1.06,2.35-1.86,4.27-2.39,5.6-.25.64-.45,1.15-.6,1.54-.13.36-.19.54-.18.55Z"/>
          <path class="cls-3" d="M151.67,310.91s.1.16.31.43c.24.3.54.68.92,1.15.83,1.02,1.98,2.43,3.38,4.14l.09-.25c-4.28.8-10.06,1.89-16.45,3.09l.21.09c-.08-.11-.17-.24-.26-.36-1.61-2.25-3.17-4.4-4.59-6.38l-.14.32c4.76-.62,8.86-1.15,11.83-1.53,1.43-.2,2.58-.36,3.43-.48.37-.06.67-.1.92-.14.21-.04.32-.06.33-.07,0-.01-.1,0-.3,0-.24.02-.54.05-.9.08-.85.09-2,.21-3.42.36-3,.35-7.14.82-11.94,1.38l-.34.04.2.28c1.42,1.98,2.96,4.15,4.57,6.4.09.12.18.25.26.36l.08.11.13-.03c6.38-1.25,12.15-2.38,16.42-3.21l.26-.05-.17-.2c-1.47-1.7-2.66-3.09-3.54-4.09-.39-.44-.71-.8-.96-1.09-.22-.24-.34-.36-.34-.35Z"/>
          <g class="cls-4">
            <polygon points="154.29 316.94 155.37 319.06 139.94 322.38 136.09 314.27 139.97 319.69 154.29 316.94"/>
          </g>
        </g>
      </g>
      <g>
        <g>
          <path class="cls-6" d="M39.34,266.94l8.44,41.45h73.28c.81,0,1.46-.66,1.46-1.46h0c0-.81-.66-1.46-1.46-1.46h-14.75l-7.83-38.55c-.15-.74-.8-1.27-1.55-1.28l-56.01-.61c-1.02-.01-1.79.92-1.59,1.92Z"/>
          <path class="cls-3" d="M39.34,266.94s0-.04-.02-.12c-.01-.08-.02-.21,0-.38.03-.32.2-.86.78-1.21.14-.09.31-.15.48-.19.18-.04.38-.04.58-.04.4,0,.84,0,1.32.01.95,0,2.06.02,3.3.03,4.97.05,12.19.12,21.18.2,4.5.05,9.44.1,14.76.15,2.66.03,5.42.06,8.27.08,1.42.01,2.87.03,4.34.04.73,0,1.47.02,2.22.02.19,0,.37,0,.57.01.2.02.39.08.57.16.36.17.65.48.8.84.08.18.12.38.15.56l.11.56c.08.37.15.75.23,1.12.15.75.31,1.5.46,2.26.31,1.52.62,3.06.94,4.61.63,3.11,1.28,6.29,1.94,9.54,1.32,6.5,2.7,13.26,4.11,20.22l-.1-.08c2.77,0,5.61,0,8.5,0,1.44,0,2.9,0,4.36,0h1.65c.18,0,.38,0,.57.03.39.08.74.32.96.64.23.32.32.74.26,1.13-.07.48-.38.91-.8,1.14-.21.11-.45.18-.69.19h-.68c-.9,0-1.79,0-2.68,0-1.78,0-3.55,0-5.31,0-3.52,0-7,0-10.42,0-6.85,0-13.48,0-19.84,0-12.72,0-24.35-.01-34.41-.02h-.06v-.06c-2.59-12.74-4.69-23.1-6.15-30.29-.72-3.59-1.28-6.38-1.67-8.28-.19-.95-.33-1.67-.43-2.16-.1-.49-.14-.74-.14-.74,0,0,.06.25.16.73.1.49.25,1.21.45,2.16.39,1.9.97,4.69,1.71,8.27,1.47,7.18,3.59,17.54,6.2,30.27l-.08-.06c10.06,0,21.69-.01,34.41-.02,6.36,0,12.99,0,19.84,0,3.42,0,6.9,0,10.42,0,1.76,0,3.53,0,5.31,0,.89,0,1.79,0,2.68,0h.67c.21-.01.42-.07.6-.16.37-.2.64-.58.7-.99.05-.34-.03-.7-.23-.98-.2-.28-.5-.49-.84-.56-.17-.04-.34-.03-.53-.03h-1.65c-1.46,0-2.92,0-4.36,0-2.89,0-5.73,0-8.5,0h-.08l-.02-.08c-1.41-6.96-2.78-13.73-4.1-20.22-.66-3.25-1.3-6.43-1.93-9.54-.32-1.56-.63-3.09-.93-4.61-.15-.76-.31-1.51-.46-2.26-.08-.37-.15-.75-.23-1.12l-.11-.56c-.04-.19-.07-.37-.14-.53-.14-.33-.4-.6-.72-.76-.16-.08-.33-.13-.51-.15-.17-.02-.37,0-.55-.01-.74,0-1.48-.02-2.22-.03-1.47-.02-2.91-.03-4.34-.05-2.85-.03-5.61-.06-8.27-.1-5.33-.06-10.27-.12-14.76-.17-8.99-.11-16.21-.2-21.18-.26-1.24-.02-2.34-.03-3.3-.04-.48,0-.92-.01-1.32-.02-.2,0-.39,0-.57.03-.17.04-.34.1-.47.18-.56.34-.74.87-.78,1.18-.03.33.02.5.01.5Z"/>
        </g>
        <circle class="cls-5" cx="70.69" cy="285.91" r="2.42"/>
        <path class="cls-3" d="M39.41,267.28s.09,0,.25,0c.17,0,.42,0,.74,0,.66,0,1.62,0,2.85,0,2.48.01,6.06.03,10.48.05,8.85.06,21.07.15,34.57.24,1.69.01,3.36.03,5,.04.41,0,.82,0,1.23.01.2,0,.41,0,.63.04.21.04.41.13.59.24.36.23.63.6.74,1.01.09.41.16.79.24,1.18.62,3.12,1.22,6.13,1.79,9,1.13,5.74,2.16,10.91,3.01,15.25.85,4.34,1.54,7.85,2.01,10.28.23,1.21.41,2.15.54,2.8.06.32.1.56.13.73.03.16.04.25.04.25,0,0-.02-.08-.06-.25-.04-.17-.09-.41-.15-.72-.13-.64-.33-1.58-.57-2.79-.49-2.43-1.2-5.94-2.08-10.27-.87-4.34-1.91-9.5-3.06-15.24-.57-2.87-1.17-5.88-1.8-9-.08-.39-.15-.79-.24-1.17-.1-.36-.34-.69-.66-.89-.16-.1-.34-.18-.53-.21-.18-.04-.38-.03-.59-.03-.41,0-.82,0-1.23,0-1.64-.01-3.31-.03-5-.04-13.5-.12-25.72-.23-34.57-.3-4.42-.05-8-.09-10.48-.11-1.23-.02-2.19-.03-2.85-.04-.32,0-.57-.01-.74-.02-.17,0-.25-.01-.25-.01Z"/>
      </g>
      <g>
        <g>
          <g>
            <path class="cls-8" d="M115.06,285.62s.02,0,.02.01c0,0-.02,0-.02-.01Z"/>
            <path class="cls-8" d="M115.21,285.71s.04.02.05.03c-.02,0-.03-.02-.05-.03Z"/>
            <path class="cls-8" d="M115.09,285.64s.09.05.12.08c-.04-.03-.08-.05-.12-.08Z"/>
            <path class="cls-8" d="M115.01,285.59s.03.02.05.03c-.03-.02-.05-.03-.05-.03Z"/>
            <path class="cls-8" d="M100.6,295.99c1.36-1.97,10.7-6.48,10.7-6.48l-2.29-.82-2.73.79s-.29,1.05-1.41,2.3c-1.12,1.25-2.57-.35-2.57-.35l1.72-5.13,5.5-2.48s4.74,1.31,5.48,1.78l1.84,2.13c.82.82,3.1,3.92,3.8,4.09.22.05,6.7-2.07,6.7-2.07l2.69,11.9-9.9.86-6.02.92s-3.38.93-4.99,1.08c-1.99.18-3.22-.6-3.15-1.68.08-1.08,1.59-1.02,1.59-1.02,0,0,2.55-.6,3.94-1.2,1.39-.61,2.39-2.07,2.39-2.07h-2.11s-4.78,2.55-6.55,3.25c-1.77.7-1.9-.99-1.97-1.51-.07-.52,5.61-4.9,5.61-4.9,0,0-5.2,2.41-6.16,3.06-.96.65-2.28.72-2.5.18-.22-.54-1-.65.36-2.62Z"/>
            <path class="cls-8" d="M115.26,285.75s.03.02.05.03c-.01,0-.03-.02-.05-.03Z"/>
            <path class="cls-8" d="M115.33,285.79s0,0,0,0h0Z"/>
            <path class="cls-8" d="M115.31,285.78s.02.01.03.02c0,0-.01,0-.03-.02Z"/>
          </g>
          <path class="cls-11" d="M124.45,299.31s.04-.12.07-.34c.02-.11.02-.25.02-.4,0-.16,0-.34-.03-.54-.08-.79-.46-1.85-1.09-2.88-.62-1.04-1.33-1.87-1.86-2.45-.53-.58-.89-.91-.91-.89-.02.02.3.39.8.99.5.6,1.18,1.45,1.79,2.46.62,1.02,1,2.03,1.12,2.8.13.76.05,1.25.09,1.26Z"/>
          <path class="cls-11" d="M111.52,289.37s.67.22,1.5.04c.83-.17,1.39-.6,1.36-.64-.03-.05-.61.28-1.4.44-.79.17-1.45.1-1.46.16Z"/>
          <path class="cls-11" d="M109.39,294.95c.02.05,1.05-.19,2.31-.54,1.26-.35,2.27-.68,2.25-.73-.02-.05-1.05.19-2.31.54-1.26.35-2.27.68-2.25.73Z"/>
          <path class="cls-11" d="M113.7,298.44c.02.05.54-.1,1.18-.27.64-.17,1.17-.29,1.16-.34,0-.05-.56-.03-1.21.14-.66.17-1.15.41-1.13.46Z"/>
          <path class="cls-11" d="M110.06,295.42c-.03.05.45.3.77.85.33.54.31,1.08.37,1.08.03,0,.07-.13.06-.36,0-.22-.08-.53-.25-.83-.18-.3-.41-.51-.6-.63-.19-.12-.33-.14-.34-.12Z"/>
          <path class="cls-11" d="M108.4,291.97c-.03.05.32.3.52.77.21.47.15.9.21.91.05.02.22-.45-.02-.99-.23-.54-.69-.74-.71-.69Z"/>
          <path class="cls-11" d="M109.77,286.31s.11-.07.19-.25c.08-.18.14-.46.11-.76-.04-.3-.16-.56-.29-.72-.12-.16-.23-.22-.25-.2-.04.04.27.39.33.94.07.55-.15.97-.1.99Z"/>
        </g>
        <g>
          <path class="cls-14" d="M154.01,224.7s6.34,2.41,8.21,9.66c0,0,1.46,4.53,2.56,9.62,2.65,12.34,7.41,33.37,7.64,39.51.41,11.11-7.63,14.27-12.14,15.24-4.51.97-32.49,4.43-32.49,4.43l-4.89-13.82,28.53-12.42s-5.44-18.68-6.7-24.52"/>
          <path class="cls-3" d="M144.72,252.4s.05.14.12.43c.08.31.18.72.32,1.26.3,1.13.74,2.76,1.3,4.86,1.16,4.22,2.9,10.33,5.12,17.92l.04.15-.14.06c-7.92,3.46-17.62,7.71-28.51,12.47l.13-.3c1.57,4.42,3.21,9.04,4.91,13.82l-.27-.17c7.27-.91,15.03-1.9,23-2.99,3.22-.46,6.43-.87,9.52-1.46,3.05-.67,5.98-1.98,8.12-4.12,2.17-2.11,3.35-5.01,3.64-7.9.04-.36.09-.72.11-1.08v-1.09c.04-.72-.03-1.44-.08-2.15-.15-1.43-.35-2.84-.58-4.23-.91-5.56-2-10.82-3.02-15.74-1.04-4.91-2.02-9.49-2.91-13.66-.45-2.09-.88-4.07-1.28-5.95-.43-1.87-.89-3.63-1.34-5.26-.46-1.63-.9-3.15-1.37-4.51-.5-1.35-1.18-2.5-1.89-3.44-1.42-1.91-2.95-3.02-3.99-3.69-.53-.34-.95-.56-1.24-.71-.29-.15-.44-.21-.43-.22,0,0,.16.04.46.17.3.13.73.34,1.27.67,1.07.65,2.63,1.75,4.1,3.66.73.95,1.44,2.1,1.96,3.48.49,1.38.94,2.89,1.42,4.52.47,1.63.94,3.39,1.38,5.26.42,1.88.86,3.87,1.32,5.95.91,4.18,1.9,8.75,2.97,13.65,1.03,4.92,2.14,10.17,3.07,15.75.23,1.4.43,2.81.59,4.26.06.73.13,1.46.1,2.2v1.11c-.03.37-.08.74-.12,1.12-.3,2.97-1.52,6-3.78,8.2-2.23,2.23-5.25,3.57-8.37,4.26-3.14.6-6.33,1.01-9.56,1.47-7.98,1.09-15.73,2.07-23.01,2.97l-.2.02-.07-.19c-1.69-4.78-3.32-9.4-4.88-13.83l-.07-.21.2-.09c10.9-4.72,20.63-8.93,28.56-12.36l-.1.21c-2.18-7.6-3.86-13.73-4.97-17.97-.55-2.12-.96-3.77-1.21-4.89-.13-.56-.22-.99-.27-1.28-.06-.29-.07-.44-.07-.44Z"/>
        </g>
        <path class="cls-3" d="M143.53,247.13s-.09-.32-.16-.9c-.08-.58-.12-1.43-.11-2.48.01-2.09.37-5.01,1.41-8.05,1.04-3.04,2.54-5.57,3.81-7.23.63-.84,1.19-1.48,1.6-1.89.41-.42.65-.64.67-.61.07.06-.8,1.02-1.98,2.72-1.18,1.7-2.59,4.2-3.62,7.19-1.01,2.99-1.42,5.83-1.53,7.9-.11,2.07,0,3.35-.1,3.36Z"/>
      </g>
    </g>
  </g>
</svg>